<svg width="10" height="11" viewBox="0 0 10 11" fill="none" xmlns="http://www.w3.org/2000/svg">
<path d="M5 0C5.1988 0 5.38945 0.0709546 5.53002 0.197255C5.67059 0.323555 5.74956 0.494855 5.74956 0.67347V8.56385L8.68886 5.61225C8.7543 5.54575 8.83372 5.49152 8.92257 5.45269C9.01142 5.41386 9.10793 5.3912 9.20656 5.386C9.3052 5.38081 9.404 5.39318 9.49729 5.42242C9.59058 5.45165 9.67651 5.49717 9.75015 5.55635C9.82379 5.61553 9.88369 5.68721 9.92639 5.76726C9.96908 5.84731 9.99375 5.93416 9.99896 6.02281C10.0042 6.11146 9.98982 6.20015 9.95674 6.2838C9.92366 6.36745 9.8725 6.44439 9.80621 6.51021L5.55868 10.7755C5.48837 10.8461 5.40227 10.9026 5.306 10.9413C5.20973 10.98 5.10546 11 5 11C4.89454 11 4.79027 10.98 4.694 10.9413C4.59773 10.9026 4.51163 10.8461 4.44132 10.7755L0.193793 6.51021C0.127498 6.44439 0.0763398 6.36745 0.0432604 6.2838C0.010181 6.20015 -0.00416664 6.11146 0.00104263 6.02281C0.0062519 5.93416 0.0309153 5.84731 0.0736144 5.76726C0.116313 5.68721 0.176206 5.61553 0.249846 5.55635C0.323487 5.49717 0.409423 5.45165 0.502713 5.42242C0.596002 5.39318 0.694803 5.38081 0.793435 5.386C0.892066 5.3912 0.988581 5.41386 1.07743 5.45269C1.16628 5.49152 1.2457 5.54575 1.31114 5.61225L4.25044 8.56385V0.67347C4.25044 0.585029 4.26982 0.497454 4.30749 0.415744C4.34516 0.334035 4.40037 0.259792 4.46998 0.197255C4.53958 0.134717 4.62221 0.0851099 4.71315 0.0512648C4.8041 0.0174198 4.90157 0 5 0Z" fill="#131316"/>
</svg>
