<svg width="36" height="36" viewBox="0 0 36 36" fill="none" xmlns="http://www.w3.org/2000/svg">
<path d="M28.5 4.5H7.5C5.85 4.5 4.5 5.85 4.5 7.5V28.5C4.5 30.15 5.85 31.5 7.5 31.5H28.5C30.15 31.5 31.5 30.15 31.5 28.5V7.5C31.5 5.85 30.15 4.5 28.5 4.5ZM14.25 17.25C14.25 18.45 13.2 19.5 12 19.5H10.5V22.5H8.25V13.5H12C13.2 13.5 14.25 14.55 14.25 15.75V17.25ZM21.75 20.25C21.75 21.45 20.7 22.5 19.5 22.5H15.75V13.5H19.5C20.7 13.5 21.75 14.55 21.75 15.75V20.25ZM27.75 15.75H25.5V17.25H27.75V19.5H25.5V22.5H23.25V13.5H27.75V15.75ZM18 15.75H19.5V20.25H18V15.75ZM10.5 15.75H12V17.25H10.5V15.75Z" fill="#00B132"/>
</svg>
