<svg width="53" height="53" viewBox="0 0 53 53" fill="none" xmlns="http://www.w3.org/2000/svg">
<circle cx="26.4998" cy="26.379" r="26.1658" fill="#00B132"/>
<path d="M22.9464 25.4021C23.9841 27.5452 25.7171 29.2736 27.8628 30.3059C28.0211 30.3808 28.1961 30.4133 28.3708 30.4C28.5454 30.3867 28.7135 30.3282 28.8587 30.2303L32.0102 28.125C32.1495 28.0306 32.3104 27.973 32.4779 27.9575C32.6454 27.9421 32.8141 27.9694 32.9683 28.0368L38.868 30.5706C39.0696 30.6545 39.2381 30.8024 39.3474 30.9915C39.4568 31.1805 39.5009 31.4003 39.4731 31.6169C39.2861 33.0764 38.5737 34.4177 37.4693 35.3899C36.3648 36.3621 34.9439 36.8986 33.4725 36.8989C28.9256 36.8989 24.5648 35.0926 21.3496 31.8774C18.1344 28.6622 16.3281 24.3015 16.3281 19.7545C16.3285 18.2831 16.8649 16.8623 17.8371 15.7578C18.8093 14.6533 20.1506 13.941 21.6101 13.754C21.8267 13.7261 22.0465 13.7703 22.2356 13.8796C22.4246 13.989 22.5725 14.1574 22.6564 14.3591L25.1903 20.2714C25.2562 20.4231 25.2837 20.5887 25.2705 20.7535C25.2574 20.9184 25.2038 21.0775 25.1146 21.2168L23.0094 24.4188C22.9157 24.5636 22.8607 24.7301 22.8496 24.9022C22.8386 25.0744 22.8719 25.2465 22.9464 25.4021V25.4021Z" stroke="white" stroke-width="2" stroke-linecap="round" stroke-linejoin="round"/>
</svg>
