<svg width="54" height="54" viewBox="0 0 54 54" fill="none" xmlns="http://www.w3.org/2000/svg">
<path d="M21.6667 38.9999V14.9999L37.6667 26.9999M27 0.333252C23.4981 0.333252 20.0305 1.02301 16.7951 2.36313C13.5598 3.70326 10.6201 5.66751 8.14386 8.14374C3.14289 13.1447 0.333374 19.9275 0.333374 26.9999C0.333374 34.0724 3.14289 40.8551 8.14386 45.8561C10.6201 48.3323 13.5598 50.2966 16.7951 51.6367C20.0305 52.9768 23.4981 53.6666 27 53.6666C34.0725 53.6666 40.8552 50.8571 45.8562 45.8561C50.8572 40.8551 53.6667 34.0724 53.6667 26.9999C53.6667 23.498 52.977 20.0304 51.6368 16.795C50.2967 13.5597 48.3324 10.62 45.8562 8.14374C43.38 5.66751 40.4403 3.70326 37.2049 2.36313C33.9696 1.02301 30.502 0.333252 27 0.333252Z" fill="white" fill-opacity="0.6"/>
</svg>
