<svg width="213" height="47" viewBox="0 0 213 47" fill="none" xmlns="http://www.w3.org/2000/svg">
<g clip-path="url(#clip0_6410_3398)">
<path fill-rule="evenodd" clip-rule="evenodd" d="M207.885 4.18243H5.11459C5.02943 4.39936 4.89919 4.60117 4.73388 4.76765C4.56857 4.93414 4.36819 5.06531 4.15279 5.15108V41.849C4.36819 41.9348 4.56857 42.066 4.73388 42.2324C4.89919 42.3989 5.02943 42.6007 5.11459 42.8177H207.885C207.971 42.6007 208.101 42.3989 208.266 42.2324C208.431 42.066 208.632 41.9348 208.847 41.849V5.15108C208.632 5.06531 208.431 4.93414 208.266 4.76765C208.101 4.60117 207.971 4.39936 207.885 4.18243ZM208.922 3.6981C208.947 3.799 208.997 3.88981 209.068 3.96044C209.138 4.03107 209.228 4.08152 209.328 4.10675C209.714 4.19756 209.979 4.54063 209.979 4.93919V42.0609C209.979 42.4595 209.714 42.8025 209.328 42.8934C209.228 42.9186 209.138 42.969 209.068 43.0397C208.997 43.1103 208.947 43.2011 208.922 43.302C208.827 43.6905 208.492 43.9579 208.096 43.9579H4.9042C4.50845 43.9579 4.16781 43.6905 4.07765 43.302C4.0526 43.2011 4.0025 43.1103 3.93237 43.0397C3.86224 42.969 3.77207 42.9186 3.67188 42.8934C3.28616 42.8025 3.02066 42.4595 3.02066 42.0609V4.93919C3.02066 4.54063 3.28616 4.19756 3.67188 4.10675C3.77207 4.08152 3.86224 4.03107 3.93237 3.96044C4.0025 3.88981 4.0526 3.799 4.07765 3.6981C4.16781 3.30963 4.50845 3.04224 4.9042 3.04224H208.096C208.492 3.04224 208.832 3.30963 208.922 3.6981Z" fill="white"/>
<path d="M208.095 3.8948C208.155 4.1521 208.286 4.37913 208.466 4.5658C208.646 4.74742 208.877 4.87859 209.132 4.93913V42.0609C208.877 42.1214 208.651 42.2526 208.466 42.4342C208.286 42.6158 208.155 42.8479 208.095 43.1001H4.90379C4.84368 42.8428 4.71343 42.6158 4.5331 42.4291C4.35276 42.2475 4.12232 42.1164 3.87185 42.0558V4.93913C4.12733 4.87859 4.35276 4.74742 4.5381 4.5658C4.71844 4.38417 4.84869 4.1521 4.9088 3.89985H208.095V3.8948ZM208.646 3.76363C208.586 3.50128 208.361 3.32471 208.095 3.32471H4.90379C4.63829 3.32471 4.41287 3.50128 4.35276 3.76363C4.31769 3.91498 4.24255 4.0512 4.13234 4.16219C4.02214 4.27318 3.88688 4.34886 3.7366 4.38417C3.47611 4.44472 3.30078 4.67174 3.30078 4.93913V42.0609C3.30078 42.3282 3.47611 42.5553 3.7366 42.6158C3.88688 42.6511 4.02214 42.7268 4.13234 42.8378C4.24255 42.9488 4.31769 43.085 4.35276 43.2364C4.41287 43.4987 4.63829 43.6753 4.90379 43.6753H208.095C208.361 43.6753 208.586 43.4987 208.646 43.2364C208.681 43.085 208.757 42.9488 208.867 42.8378C208.977 42.7268 209.112 42.6511 209.263 42.6158C209.523 42.5553 209.698 42.3282 209.698 42.0609V4.93913C209.698 4.67174 209.523 4.44472 209.263 4.38417C209.112 4.34886 208.977 4.27318 208.867 4.16219C208.757 4.0512 208.681 3.91498 208.646 3.76363Z" fill="white"/>
<path fill-rule="evenodd" clip-rule="evenodd" d="M86.5922 23.7271C86.5922 21.5778 86.2215 19.2369 84.8639 17.5014C83.5264 15.7962 81.6329 15.1555 79.5139 15.1555C77.5853 15.1555 75.832 15.7104 74.5796 17.2391C73.3724 18.7223 73.0117 20.6647 73.0117 22.5364C73.0117 24.7815 73.4425 27.0366 74.6948 28.9285C76.0123 30.9113 77.8658 31.8496 80.2252 31.8496C82.1689 31.8496 83.817 31.1938 84.9942 29.6096C86.2365 27.9397 86.5922 25.7703 86.5922 23.7271ZM96.4457 23.1671V31.2896C96.7613 31.3451 97.0819 31.3855 97.3975 31.4259C97.8183 31.4763 98.2441 31.5066 98.6649 31.5066C99.8821 31.5066 101.029 31.1887 101.916 30.3159C102.803 29.4431 103.123 28.2979 103.123 27.0719C103.123 25.9267 102.843 24.7966 101.881 24.0953C100.839 23.3335 99.3111 23.1721 98.0637 23.1721H96.4457V23.1671ZM96.5609 15.7256C96.5158 15.9829 96.4858 16.2402 96.4757 16.4975C96.4557 16.8557 96.4507 17.2139 96.4507 17.5721V21.8099C96.6911 21.8402 96.9366 21.8604 97.1821 21.8705C97.5127 21.8856 97.8433 21.8957 98.1739 21.8957C99.1708 21.8957 100.273 21.7393 101.114 21.1541C102.021 20.5234 102.342 19.5699 102.342 18.4953C102.342 17.5317 102.081 16.6286 101.25 16.0737C100.493 15.5692 99.4012 15.4632 98.5196 15.4632C98.194 15.4632 97.8684 15.4783 97.5478 15.5036C97.2171 15.5288 96.8865 15.6095 96.5709 15.7205L96.5609 15.7256ZM124.669 23.722C124.669 21.5728 124.303 19.2319 122.94 17.4964C121.603 15.7911 119.709 15.1504 117.59 15.1504C115.662 15.1504 113.908 15.7054 112.656 17.234C111.449 18.7173 111.088 20.6596 111.088 22.5314C111.088 24.7764 111.519 27.0316 112.771 28.9235C114.084 30.9062 115.942 31.8446 118.302 31.8446C120.245 31.8446 121.893 31.1887 123.071 29.6046C124.313 27.9347 124.669 25.7653 124.669 23.722ZM163.271 23.722C163.271 21.5728 162.9 19.2319 161.543 17.4964C160.205 15.7911 158.312 15.1504 156.193 15.1504C154.264 15.1504 152.511 15.7054 151.259 17.234C150.051 18.7173 149.691 20.6596 149.691 22.5314C149.691 24.7764 150.121 27.0316 151.374 28.9235C152.686 30.9062 154.545 31.8446 156.904 31.8446C158.848 31.8446 160.496 31.1887 161.673 29.6046C162.915 27.9347 163.271 25.7653 163.271 23.722ZM194.595 25.3617L191.529 18.0059L188.479 25.3617H194.595ZM16.5206 24.0197L16.4104 24.0953V29.5794C16.4104 29.9224 16.4154 31.1736 16.6609 31.441C16.9965 31.8042 18.314 31.8194 18.7648 31.8194C18.845 31.8194 18.9051 31.885 18.9051 31.9606V32.7527C18.9051 32.8334 18.84 32.894 18.7648 32.894C18.2889 32.894 17.813 32.894 17.3421 32.8687C16.5757 32.8334 15.7492 32.7628 14.9877 32.7628C14.2263 32.7628 13.5049 32.7931 12.7635 32.8284C12.2826 32.8536 11.7667 32.894 11.2858 32.894C11.2056 32.894 11.1455 32.8284 11.1455 32.7527V31.9606C11.1455 31.8799 11.2106 31.8194 11.2858 31.8194C11.6765 31.8194 13.0441 31.8093 13.3346 31.4965C13.6252 31.1786 13.6402 29.988 13.6402 29.5844V17.4459C13.6402 17.1029 13.6352 15.8517 13.3897 15.5843C13.0541 15.221 11.7366 15.2059 11.2858 15.2059C11.2056 15.2059 11.1455 15.1403 11.1455 15.0646V14.2726C11.1455 14.1918 11.2106 14.1313 11.2858 14.1313C11.9771 14.1313 12.6784 14.1616 13.3697 14.1969C13.9007 14.2221 14.4567 14.2625 14.9927 14.2625C15.4636 14.2625 15.9345 14.2625 16.4054 14.2373C17.1768 14.2019 18.0084 14.1313 18.7748 14.1313C18.855 14.1313 18.9151 14.1969 18.9151 14.2726V15.0646C18.9151 15.1454 18.85 15.2059 18.7748 15.2059C18.3841 15.2059 17.0165 15.216 16.726 15.5288C16.4354 15.8416 16.4204 17.0373 16.4204 17.4409V22.9552C16.9965 22.5314 17.5375 22.0521 18.0435 21.5425L23.8944 15.6953C24.0347 15.554 24.1249 15.3774 24.195 15.1958C24.2902 14.9183 24.3052 14.5601 24.3052 14.2675C24.3052 14.2272 24.3202 14.1918 24.3503 14.1616C24.3804 14.1313 24.4204 14.1212 24.4605 14.1263C24.8262 14.1666 25.1919 14.207 25.5576 14.2322C25.9283 14.2574 26.309 14.2574 26.6747 14.2574C26.9201 14.2574 27.1706 14.2574 27.4161 14.2423C27.892 14.2221 28.3879 14.1717 28.8638 14.1263C28.9039 14.1263 28.9439 14.1364 28.974 14.1616C29.004 14.1918 29.0191 14.2272 29.0191 14.2675V15.0596C29.0191 15.1403 28.9539 15.2009 28.8788 15.2009C28.423 15.2009 27.7166 15.211 27.2858 15.3774C26.835 15.549 26.2489 16.0081 25.8732 16.3057L18.9802 22.5717L27.4812 30.6388C27.7266 30.8709 27.9671 31.0979 28.2126 31.3199C28.6133 31.6529 29.0692 31.8143 29.5901 31.8143C29.6703 31.8143 29.7304 31.8799 29.7304 31.9556V32.7477C29.7304 32.788 29.7154 32.8284 29.6803 32.8536C29.6503 32.8839 29.6102 32.894 29.5701 32.8889C28.969 32.8082 28.3578 32.7578 27.7517 32.7578C27.4662 32.7578 27.1706 32.7578 26.8851 32.783C26.5595 32.8133 26.2288 32.8486 25.9032 32.8889C25.8481 32.894 25.793 32.8687 25.768 32.8233C25.6327 32.6014 25.3822 32.3693 25.1869 32.2028C25.0466 32.0817 24.9063 31.9556 24.7611 31.8295L16.5306 24.0197H16.5206ZM46.3917 17.6376L37.8256 29.3977C37.3948 29.988 36.964 30.5934 36.5682 31.214C36.2527 31.7084 35.9321 32.2532 35.7167 32.8032C35.6916 32.8687 35.6265 32.9041 35.5614 32.8889C35.3309 32.8486 35.0955 32.8082 34.86 32.783C34.5695 32.7527 34.2489 32.7578 33.9533 32.7578C33.5025 32.7578 33.0466 32.788 32.6008 32.8233C32.2201 32.8536 31.8143 32.8889 31.4336 32.8889C31.3535 32.8889 31.2933 32.8233 31.2933 32.7477V31.9556C31.2933 31.8799 31.3484 31.8194 31.4236 31.8143C31.8794 31.774 32.5607 31.6579 32.8763 31.2846C33.1218 30.992 33.1568 30.4219 33.1568 30.0536V17.4409C33.1568 17.0978 33.1518 15.8466 32.9064 15.5792C32.5707 15.216 31.2533 15.2009 30.8024 15.2009C30.7223 15.2009 30.6622 15.1353 30.6622 15.0596V14.2675C30.6622 14.1868 30.7273 14.1263 30.8024 14.1263C31.4937 14.1263 32.195 14.1565 32.8863 14.1918C33.4173 14.2171 33.9734 14.2574 34.5094 14.2574C34.9803 14.2574 35.4511 14.2574 35.922 14.2322C36.6935 14.1969 37.525 14.1263 38.2915 14.1263C38.3716 14.1263 38.4317 14.1918 38.4317 14.2675V15.0596C38.4317 15.1403 38.3666 15.2009 38.2915 15.2009C37.9008 15.2009 36.5332 15.211 36.2426 15.5238C35.9521 15.8416 35.9371 17.0272 35.9371 17.4308V29.3574L44.4981 17.6124C44.9289 17.0171 45.3598 16.4117 45.7555 15.7962C46.0711 15.3018 46.3967 14.7569 46.6121 14.212C46.6372 14.1464 46.7073 14.1111 46.7774 14.1263C47.0529 14.1969 47.3836 14.2171 47.6691 14.2272C47.8995 14.2373 48.14 14.2524 48.3704 14.2524C48.9164 14.2524 49.4725 14.2171 50.0185 14.1868C50.5144 14.1565 51.0304 14.1212 51.5213 14.1212C51.6015 14.1212 51.6616 14.1868 51.6616 14.2625V15.0546C51.6616 15.1353 51.5965 15.1958 51.5213 15.1958C51.1156 15.1958 49.7881 15.2059 49.4875 15.5338C49.1869 15.8618 49.1719 17.0171 49.1719 17.4308V29.5693C49.1719 29.9123 49.1769 31.1635 49.4224 31.4309C49.758 31.7941 51.0755 31.8093 51.5263 31.8093C51.6065 31.8093 51.6666 31.8749 51.6666 31.9505V32.7426C51.6666 32.8233 51.6015 32.8839 51.5263 32.8839C51.0504 32.8839 50.5745 32.8839 50.1037 32.8587C49.3372 32.8233 48.5107 32.7527 47.7492 32.7527C46.9878 32.7527 46.2665 32.783 45.5251 32.8183C45.0442 32.8435 44.5282 32.8839 44.0473 32.8839C43.9671 32.8839 43.907 32.8183 43.907 32.7426V31.9505C43.907 31.8698 43.9721 31.8093 44.0473 31.8093C44.438 31.8093 45.8056 31.7992 46.0961 31.4864C46.3867 31.1686 46.4017 29.9779 46.4017 29.5743V17.6326L46.3917 17.6376ZM58.8651 15.7407C58.81 15.9072 58.78 16.0838 58.7699 16.2603C58.7499 16.5529 58.7449 16.8557 58.7449 17.1483V29.5794C58.7449 29.9224 58.7499 31.1736 58.9954 31.441C59.331 31.8042 60.6485 31.8194 61.0993 31.8194C61.1795 31.8194 61.2396 31.885 61.2396 31.9606V32.7527C61.2396 32.8334 61.1745 32.894 61.0993 32.894C60.6234 32.894 60.1475 32.894 59.6766 32.8687C58.9102 32.8334 58.0836 32.7628 57.3222 32.7628C56.5608 32.7628 55.8394 32.7931 55.098 32.8284C54.6171 32.8536 54.1012 32.894 53.6203 32.894C53.5401 32.894 53.48 32.8284 53.48 32.7527V31.9606C53.48 31.8799 53.5451 31.8194 53.6203 31.8194C54.011 31.8194 55.3786 31.8093 55.6691 31.4965C55.9597 31.1786 55.9747 29.988 55.9747 29.5844V17.4459C55.9747 17.1029 55.9697 15.8517 55.7242 15.5843C55.3886 15.221 54.0711 15.2059 53.6203 15.2059C53.5401 15.2059 53.48 15.1403 53.48 15.0646V14.2726C53.48 14.1918 53.5451 14.1313 53.6203 14.1313C54.517 14.1313 55.4136 14.1616 56.3053 14.1969C56.9415 14.2221 57.6027 14.2625 58.2439 14.2625C58.82 14.2625 59.3961 14.2625 59.9722 14.2373C60.914 14.2019 61.9008 14.1313 62.8426 14.1313C64.155 14.1313 65.4625 14.3785 66.5946 15.0798C67.8119 15.8315 68.4231 16.9364 68.4231 18.3742C68.4231 20.024 67.8219 21.4063 66.5896 22.5011C65.3323 23.6211 63.8344 24.1256 62.1613 24.1256C61.6253 24.1256 60.934 24.1105 60.413 23.9591C60.3629 23.944 60.3279 23.9087 60.3178 23.8633L60.0273 22.8845C60.0123 22.8341 60.0273 22.7786 60.0624 22.7433C60.1024 22.7029 60.1525 22.6928 60.2026 22.7079C60.4481 22.7836 60.7036 22.8391 60.954 22.8744C61.2446 22.9198 61.5451 22.94 61.8407 22.94C62.8476 22.94 63.7343 22.6222 64.4606 21.9108C65.192 21.1944 65.5076 20.2964 65.5076 19.2773C65.5076 18.1976 65.2621 17.113 64.4256 16.3713C63.584 15.6247 62.4569 15.4027 61.3698 15.4027C60.939 15.4027 60.5082 15.438 60.0824 15.5036C59.6817 15.5893 59.2809 15.6751 58.8751 15.7508L58.8651 15.7407ZM89.688 22.8997C89.688 25.7552 88.7212 28.2222 86.7174 30.2503C84.7036 32.2936 82.234 33.2623 79.3837 33.2623C76.7988 33.2623 74.4644 32.4954 72.6159 30.6338C70.6623 28.6712 69.9209 26.1386 69.9209 23.3991C69.9209 20.6596 70.7625 18.3692 72.656 16.4722C74.6347 14.4845 77.1845 13.7227 79.9397 13.7227C82.4895 13.7227 84.9942 14.3129 86.9428 16.0535C88.9366 17.8394 89.698 20.251 89.698 22.8946L89.688 22.8997ZM101.676 22.2135C102.652 22.3195 103.609 22.597 104.426 23.1671C105.603 23.9944 106.114 25.1851 106.114 26.6179C106.114 28.5047 105.267 29.983 103.784 31.1231C102.161 32.3693 100.278 32.899 98.2491 32.899C97.7081 32.899 97.162 32.8687 96.626 32.8334C96.2353 32.8082 95.8045 32.7678 95.4137 32.7678C94.8527 32.7678 94.2866 32.7981 93.7306 32.8334C93.3499 32.8587 92.9291 32.899 92.5534 32.899C92.4732 32.899 92.4131 32.8334 92.4131 32.7578V31.9657C92.4131 31.9001 92.4532 31.8446 92.5183 31.8295C92.8339 31.7437 93.2797 31.5822 93.4551 31.2846C93.6404 30.9718 93.6705 30.4673 93.6705 30.1141V17.4459C93.6705 16.9969 93.6504 15.9021 93.2948 15.5692C92.9441 15.2362 91.9522 15.211 91.5014 15.211C91.4213 15.211 91.3611 15.1454 91.3611 15.0697V14.2776C91.3611 14.1969 91.4263 14.1364 91.5014 14.1364C92.343 14.1364 93.1896 14.1666 94.0261 14.2019C94.6623 14.2272 95.3236 14.2675 95.9648 14.2675C96.5208 14.2675 97.0819 14.2675 97.6379 14.2423C98.5496 14.207 99.5164 14.1364 100.428 14.1364C101.555 14.1364 102.783 14.3129 103.739 14.9537C104.791 15.66 105.222 16.7295 105.222 17.9807C105.222 19.2319 104.711 20.2157 103.81 21.0229C103.178 21.5879 102.457 21.9764 101.676 22.2236V22.2135ZM127.765 22.8997C127.765 25.7552 126.798 28.2222 124.794 30.2503C122.78 32.2936 120.311 33.2623 117.46 33.2623C114.875 33.2623 112.541 32.4954 110.692 30.6338C108.739 28.6712 107.997 26.1386 107.997 23.3991C107.997 20.6596 108.839 18.3692 110.733 16.4722C112.711 14.4845 115.261 13.7227 118.016 13.7227C120.566 13.7227 123.071 14.3129 125.019 16.0535C127.013 17.8394 127.775 20.251 127.775 22.8946L127.765 22.8997ZM136.791 24.8622L135.724 26.3707L133.776 29.3473L131.617 32.8284C131.587 32.8788 131.532 32.9041 131.471 32.894C131.246 32.8587 131.016 32.8183 130.79 32.788C130.585 32.7628 130.359 32.7628 130.149 32.7628C129.698 32.7628 129.247 32.8132 128.806 32.894C128.761 32.899 128.721 32.894 128.691 32.8637C128.656 32.8334 128.641 32.7981 128.641 32.7527V31.9606C128.641 31.8799 128.706 31.8194 128.781 31.8194C129.337 31.8194 129.939 31.7084 130.324 31.2644C130.56 30.9213 130.805 30.5833 131.061 30.2604L131.822 29.2565L135.975 23.5908L133.901 20.0542L132.774 18.2834C132.468 17.8041 132.138 17.2895 131.787 16.8456C131.236 16.1544 130.54 15.6801 129.638 15.6801C129.503 15.6801 129.347 15.6801 129.217 15.7054C129.177 15.7104 129.137 15.7054 129.107 15.6751C129.077 15.6499 129.057 15.6146 129.052 15.5742L129.002 14.8326C128.997 14.7569 129.047 14.6913 129.122 14.6812L132.904 14.1263C132.929 14.1263 132.954 14.1263 132.979 14.1364C133.32 14.2877 133.61 14.55 133.846 14.8376C134.071 15.1151 134.277 15.4481 134.457 15.7508L135.479 17.4207L137.703 21.2701L142.432 14.318C142.457 14.2776 142.502 14.2574 142.547 14.2574H145.202C145.282 14.2574 145.343 14.323 145.343 14.3987V15.1908C145.343 15.2715 145.277 15.332 145.202 15.332C144.786 15.332 144.22 15.3724 143.865 15.6247C143.704 15.7306 143.364 16.1847 143.239 16.3411L141.079 18.9998L138.465 22.5717L143.429 30.5531C143.584 30.7801 143.815 31.1686 144 31.3804C144.286 31.7336 144.776 31.8143 145.202 31.8143H145.438C145.518 31.8143 145.578 31.8799 145.578 31.9556V32.7477C145.578 32.788 145.563 32.8284 145.528 32.8536C145.498 32.8839 145.458 32.894 145.418 32.8889C144.801 32.8133 144.175 32.7578 143.554 32.7578C142.933 32.7578 142.292 32.8032 141.661 32.8788C141.605 32.8839 141.555 32.8637 141.525 32.8183L141.069 32.1423L136.786 24.8622H136.791ZM166.362 22.8997C166.362 25.7552 165.395 28.2222 163.391 30.2503C161.378 32.2936 158.908 33.2623 156.058 33.2623C153.473 33.2623 151.138 32.4954 149.285 30.6338C147.331 28.6712 146.59 26.1386 146.59 23.3991C146.59 20.6596 147.431 18.3692 149.325 16.4722C151.304 14.4845 153.853 13.7227 156.609 13.7227C159.158 13.7227 161.663 14.3129 163.612 16.0535C165.606 17.8394 166.362 20.251 166.362 22.8946V22.8997ZM176.521 15.7609C176.446 16.5883 176.431 17.4308 176.431 18.2582V29.5794C176.431 29.9224 176.436 31.1736 176.681 31.441C177.017 31.8042 178.334 31.8194 178.785 31.8194C178.865 31.8194 178.926 31.885 178.926 31.9606V32.7527C178.926 32.8334 178.86 32.894 178.785 32.894C178.309 32.894 177.834 32.894 177.363 32.8687C176.596 32.8334 175.77 32.7628 175.008 32.7628C174.247 32.7628 173.525 32.7931 172.784 32.8284C172.303 32.8536 171.787 32.894 171.306 32.894C171.226 32.894 171.166 32.8284 171.166 32.7527V31.9606C171.166 31.8799 171.231 31.8194 171.306 31.8194C171.697 31.8194 173.065 31.8093 173.355 31.4965C173.646 31.1786 173.661 29.988 173.661 29.5844V16.3461C173.631 16.1544 173.601 15.9627 173.576 15.7659L169.653 15.892C169.463 15.892 169.197 15.9122 169.037 16.0232C168.892 16.1241 168.872 16.3814 168.872 16.5429C168.872 16.5529 168.872 16.563 168.872 16.5731C168.797 16.9465 168.726 17.3248 168.661 17.7032C168.611 17.9908 168.586 18.2834 168.586 18.576C168.586 18.6567 168.521 18.7173 168.446 18.7173H167.659C167.584 18.7173 167.519 18.6567 167.519 18.576L167.494 17.0928C167.494 16.5731 167.464 16.0484 167.429 15.5288C167.404 15.1151 167.364 14.6762 167.364 14.2625C167.364 14.1818 167.429 14.1212 167.504 14.1212C168.967 14.1212 170.43 14.1515 171.892 14.1918C172.944 14.2171 174.016 14.2625 175.068 14.2625C176.01 14.2625 176.957 14.2625 177.899 14.2373C179.472 14.1969 181.085 14.1212 182.658 14.1212C182.738 14.1212 182.798 14.1868 182.798 14.2625C182.798 14.8073 182.763 15.3573 182.718 15.9021C182.688 16.2805 182.638 16.7144 182.638 17.0928V18.576C182.638 18.6567 182.572 18.7173 182.497 18.7173H181.711C181.631 18.7173 181.571 18.6517 181.571 18.576C181.571 18.233 181.515 17.8697 181.455 17.5317C181.395 17.2088 181.34 16.8859 181.285 16.563C181.285 16.5529 181.285 16.5479 181.285 16.5378C181.285 16.3915 181.27 16.109 181.135 16.0182C180.979 15.9122 180.684 15.8971 180.504 15.8971L176.541 15.771L176.521 15.7609ZM195.191 26.7844H187.917C187.597 27.5109 187.261 28.2374 186.961 28.9689C186.82 29.312 186.209 30.7397 186.209 31.0828C186.209 31.552 186.835 31.663 187.186 31.7084C187.562 31.7437 187.938 31.779 188.313 31.8143C188.388 31.8194 188.443 31.885 188.443 31.9556V32.7477C188.443 32.8284 188.378 32.8889 188.303 32.8889C187.732 32.8889 187.156 32.8587 186.59 32.8233C186.164 32.7981 185.708 32.7578 185.288 32.7578C184.701 32.7578 184.11 32.788 183.524 32.8233C183.118 32.8486 182.673 32.8889 182.267 32.8889C182.187 32.8889 182.127 32.8233 182.127 32.7477V31.9556C182.127 31.885 182.177 31.8295 182.242 31.8143C182.638 31.7437 183.028 31.6731 183.419 31.6024C183.905 31.4813 184.236 30.8911 184.426 30.4622L185.713 27.7429L189.26 19.7566C189.556 19.0906 189.851 18.4297 190.152 17.7638C190.272 17.4913 190.412 17.2088 190.522 16.9263C190.923 15.9778 191.299 15.0192 191.649 14.0506C191.669 13.9951 191.72 13.9547 191.785 13.9547H192.626C192.686 13.9547 192.737 13.99 192.757 14.0405L199.088 29.09C199.254 29.4986 199.424 29.9275 199.634 30.3159C199.845 30.7145 200.105 31.0929 200.436 31.4057C200.777 31.7286 201.298 31.8042 201.743 31.8042C201.824 31.8042 201.884 31.8698 201.884 31.9455V32.7376C201.884 32.8183 201.819 32.8788 201.743 32.8788C201.082 32.8788 200.416 32.8486 199.755 32.8133C199.264 32.788 198.743 32.7477 198.252 32.7477C197.566 32.7477 196.869 32.7779 196.183 32.8133C195.717 32.8385 195.221 32.8788 194.755 32.8788C194.675 32.8788 194.615 32.8132 194.615 32.7376V31.9455C194.615 31.8648 194.68 31.8042 194.755 31.8042C195.116 31.8042 195.497 31.7941 195.852 31.7386C196.118 31.6983 196.373 31.6176 196.609 31.4914C196.799 31.3905 196.899 31.2442 196.899 31.0222C196.899 30.8709 196.829 30.6893 196.769 30.5531L195.211 26.7743L195.191 26.7844Z" fill="white"/>
<path d="M29.5805 32.7578V31.9657C29.0195 31.9657 28.5286 31.7891 28.1078 31.436C27.8623 31.2089 27.6169 30.9769 27.3714 30.7498L18.7602 22.5768L25.7734 16.2049C26.4196 15.6953 26.9055 15.3775 27.2311 15.2513C27.5567 15.1302 28.1028 15.0647 28.8742 15.0647V14.2726C28.1378 14.3432 27.6519 14.3836 27.4165 14.3937C27.181 14.4038 26.9306 14.4088 26.6701 14.4088C26.1641 14.4088 25.7884 14.3987 25.543 14.3836C25.2975 14.3634 24.9318 14.3331 24.4409 14.2776C24.4409 14.7014 24.4008 15.0243 24.3207 15.2513C24.2355 15.4784 24.1303 15.665 23.9901 15.8063L18.1391 21.6535C17.5279 22.269 16.9067 22.7988 16.2756 23.2427V17.451C16.2756 16.3562 16.3908 15.6852 16.6162 15.443C16.8416 15.1958 17.563 15.0748 18.7702 15.0748V14.2827C18.63 14.2827 17.8435 14.318 16.4058 14.3886C16.0401 14.4038 15.5642 14.4138 14.9881 14.4138C14.7778 14.4138 14.2367 14.3937 13.3601 14.3483C12.4834 14.3029 11.7921 14.2827 11.2862 14.2827V15.0748C12.4935 15.0748 13.2298 15.216 13.4903 15.4985C13.6807 15.7104 13.7809 16.3612 13.7809 17.456V29.5945C13.7809 30.6893 13.6657 31.3603 13.4402 31.6024C13.2148 31.8497 12.4935 31.9707 11.2862 31.9707V32.7628C11.3714 32.7628 11.8623 32.7426 12.759 32.6972C13.6506 32.6518 14.397 32.6316 14.9932 32.6316C15.1334 32.6316 15.9199 32.667 17.3576 32.7376C17.7233 32.7527 18.1992 32.7628 18.7753 32.7628V31.9707C17.568 31.9707 16.8316 31.8295 16.5711 31.547C16.3808 31.3351 16.2806 30.6842 16.2806 29.5895V24.0298L16.5461 23.8431L24.8617 31.7336C25.002 31.8547 25.1422 31.9808 25.2825 32.1019C25.583 32.3643 25.7834 32.5812 25.8936 32.7578C26.3495 32.7073 26.6751 32.672 26.8805 32.6518C27.0809 32.6367 27.3764 32.6266 27.7621 32.6266C28.3232 32.6266 28.9343 32.672 29.6006 32.7578M51.5418 32.7578V31.9657C50.3345 31.9657 49.5981 31.8244 49.3377 31.5419C49.1473 31.33 49.0471 30.6792 49.0471 29.5844V17.4459C49.0471 16.3713 49.1673 15.7054 49.4028 15.4481C49.6382 15.1908 50.3546 15.0647 51.5418 15.0647V14.2726C51.3164 14.2726 50.8154 14.2928 50.044 14.3382C49.2725 14.3836 48.7215 14.4038 48.3909 14.4038C48.3207 14.4038 48.0853 14.3937 47.6846 14.3785C47.2838 14.3584 46.9732 14.3281 46.7678 14.2726C46.5925 14.7115 46.302 15.2513 45.8962 15.882C45.6157 16.3209 45.1949 16.9313 44.6338 17.7083L35.8173 29.8064V17.4409C35.8173 16.3512 35.9325 15.6802 36.1579 15.433C36.3833 15.1857 37.1047 15.0647 38.3119 15.0647V14.2726C38.1717 14.2726 37.3852 14.3079 35.9475 14.3785C35.5818 14.3937 35.1059 14.4038 34.5298 14.4038C34.3195 14.4038 33.7784 14.3836 32.9018 14.3382C32.0251 14.2928 31.3338 14.2726 30.8279 14.2726V15.0647C32.0352 15.0647 32.7715 15.2059 33.032 15.4885C33.2274 15.7003 33.3226 16.3512 33.3226 17.4459V30.0587C33.3226 30.6943 33.2174 31.1333 33.007 31.3805C32.7465 31.6983 32.2255 31.89 31.4591 31.9606V32.7527C31.6695 32.7527 32.0552 32.7325 32.6163 32.6871C33.1773 32.6417 33.6332 32.6216 33.9838 32.6216C34.4196 32.6216 34.7302 32.6316 34.9005 32.6468C35.0759 32.667 35.3113 32.6972 35.6119 32.7527C35.7872 32.3138 36.0778 31.774 36.4785 31.1383C36.759 30.6994 37.1798 30.0889 37.7409 29.312L46.5624 17.1987V29.5743C46.5624 30.6691 46.4472 31.3401 46.2218 31.5823C45.9964 31.8295 45.275 31.9506 44.0678 31.9506V32.7426C44.1529 32.7426 44.6438 32.7225 45.5405 32.677C46.4322 32.6316 47.1786 32.6115 47.7747 32.6115C47.915 32.6115 48.7015 32.6468 50.1392 32.7174C50.5048 32.7325 50.9807 32.7426 51.5568 32.7426L51.5418 32.7578ZM68.2832 18.3692C68.2832 16.9767 67.6971 15.9173 66.5249 15.1958C65.5281 14.5803 64.3008 14.2726 62.848 14.2726C62.7078 14.2726 61.756 14.3079 59.9877 14.3785C59.5518 14.3937 58.9707 14.4038 58.2544 14.4038C58.044 14.4038 57.3978 14.3836 56.3107 14.3382C55.2237 14.2928 54.332 14.2726 53.6307 14.2726V15.0647C54.838 15.0647 55.5744 15.2059 55.8349 15.4885C56.0252 15.7003 56.1254 16.3512 56.1254 17.4459V29.5844C56.1254 30.6792 56.0102 31.3502 55.7848 31.5924C55.5593 31.8396 54.838 31.9606 53.6307 31.9606V32.7527C53.7209 32.7527 54.2068 32.7325 55.1035 32.6871C55.9952 32.6417 56.7416 32.6216 57.3377 32.6216C57.4779 32.6216 58.2644 32.6569 59.7021 32.7275C60.0678 32.7426 60.5437 32.7527 61.1198 32.7527V31.9606C59.9125 31.9606 59.1761 31.8194 58.9156 31.5369C58.7253 31.325 58.6251 30.6742 58.6251 29.5794V17.1483C58.6251 16.78 58.6351 16.4773 58.6501 16.2503C58.6652 16.0182 58.7103 15.8113 58.7804 15.6146C59.0609 15.5641 59.4917 15.4733 60.0678 15.3522C60.5036 15.2816 60.9445 15.2463 61.3803 15.2463C62.7278 15.2463 63.7798 15.5793 64.5312 16.2503C65.2826 16.9213 65.6583 17.9252 65.6583 19.2672C65.6583 20.3771 65.2976 21.2903 64.5662 22.0067C63.8399 22.7231 62.9332 23.0763 61.8461 23.0763C61.5306 23.0763 61.23 23.0561 60.9394 23.0107C60.6489 22.9653 60.3934 22.9098 60.163 22.8391L60.4535 23.8179C60.8192 23.9238 61.3903 23.9743 62.1617 23.9743C63.8599 23.9743 65.3026 23.4445 66.4949 22.3901C67.6871 21.3307 68.2782 19.9937 68.2782 18.3692H68.2832ZM89.5682 22.9047C89.5682 20.0341 88.6665 17.7941 86.8631 16.1695C85.1449 14.6409 82.8456 13.874 79.9552 13.874C77.0647 13.874 74.57 14.7771 72.7717 16.5782C70.9783 18.3843 70.0816 20.6597 70.0816 23.4042C70.0816 26.3808 70.9683 28.757 72.7366 30.5379C74.4498 32.2634 76.674 33.1261 79.4041 33.1261C82.2745 33.1261 84.689 32.1322 86.6377 30.1545C88.5914 28.1768 89.5682 25.7552 89.5682 22.9047ZM86.7579 23.7271C86.7579 26.2446 86.2169 28.2323 85.1299 29.6954C83.9927 31.2241 82.3647 31.9909 80.2457 31.9909C77.7961 31.9909 75.9126 30.997 74.6001 29.0042C73.463 27.299 72.8919 25.1397 72.8919 22.5364C72.8919 20.251 73.4279 18.455 74.4949 17.1483C75.6521 15.7256 77.3302 15.0092 79.5394 15.0092C81.9188 15.0092 83.7423 15.8113 84.9996 17.4106C86.1718 18.909 86.7579 21.0128 86.7579 23.722V23.7271ZM105.994 26.623C105.994 25.1599 105.453 24.05 104.366 23.2932C103.439 22.6424 102.222 22.3144 100.714 22.3144C101.921 22.1026 102.928 21.6334 103.735 20.9119C104.647 20.0997 105.102 19.1209 105.102 17.9757C105.102 16.669 104.631 15.7003 103.685 15.0647C102.898 14.5349 101.821 14.2726 100.454 14.2726C100.313 14.2726 99.3866 14.3079 97.6684 14.3785C97.2476 14.3937 96.6866 14.4038 95.9853 14.4038C95.7598 14.4038 95.1086 14.3836 94.0416 14.3382C92.9746 14.2928 92.133 14.2726 91.5219 14.2726V15.0647C92.5037 15.0647 93.1349 15.1958 93.4104 15.4632C93.6909 15.7256 93.8312 16.3865 93.8312 17.4459V30.1141C93.8312 30.6792 93.7511 31.0929 93.5958 31.3552C93.4405 31.6176 93.0948 31.8244 92.5739 31.9657V32.7578C92.659 32.7578 93.0497 32.7376 93.741 32.6922C94.4323 32.6468 94.9984 32.6266 95.4342 32.6266C95.5745 32.6266 95.9802 32.6468 96.6565 32.6922C97.3328 32.7376 97.8688 32.7578 98.2695 32.7578C100.389 32.7578 102.202 32.1776 103.72 31.0122C105.233 29.8468 105.989 28.3837 105.989 26.623H105.994ZM102.502 18.5054C102.502 19.7566 102.072 20.6849 101.215 21.2802C100.479 21.7898 99.4718 22.0471 98.1944 22.0471C97.8638 22.0471 97.5282 22.037 97.1975 22.0218C96.8669 22.0067 96.5764 21.9764 96.3309 21.9411V17.5771C96.3309 17.1735 96.3409 16.8103 96.356 16.4924C96.371 16.1746 96.406 15.882 96.4611 15.6196C96.8469 15.4784 97.2076 15.3926 97.5532 15.3674C97.8938 15.3421 98.2245 15.327 98.5401 15.327C99.7824 15.327 100.719 15.5389 101.35 15.9627C102.122 16.4722 102.508 17.3198 102.508 18.5004L102.502 18.5054ZM103.289 27.072C103.289 28.4846 102.873 29.5996 102.042 30.4169C101.21 31.2392 100.093 31.6479 98.6953 31.6479C98.2595 31.6479 97.8287 31.6226 97.4079 31.5671C96.9871 31.5167 96.6265 31.4612 96.3309 31.4107V23.0258H98.0892C99.8225 23.0258 101.12 23.3436 101.992 23.9793C102.858 24.615 103.294 25.6442 103.294 27.072H103.289ZM127.645 22.9047C127.645 20.0341 126.743 17.7941 124.94 16.1695C123.221 14.6409 120.922 13.874 118.032 13.874C115.141 13.874 112.647 14.7771 110.848 16.5782C109.055 18.3843 108.158 20.6597 108.158 23.4042C108.158 26.3808 109.04 28.757 110.813 30.5379C112.526 32.2634 114.75 33.1261 117.481 33.1261C120.351 33.1261 122.766 32.1322 124.714 30.1545C126.668 28.1768 127.645 25.7552 127.645 22.9047ZM124.834 23.7271C124.834 26.2446 124.293 28.2323 123.206 29.6954C122.069 31.2241 120.441 31.9909 118.322 31.9909C115.873 31.9909 113.989 30.997 112.677 29.0042C111.539 27.299 110.968 25.1397 110.968 22.5364C110.968 20.251 111.504 18.455 112.571 17.1483C113.729 15.7256 115.407 15.0092 117.611 15.0092C119.99 15.0092 121.814 15.8113 123.071 17.4106C124.243 18.909 124.829 21.0128 124.829 23.722L124.834 23.7271ZM145.463 32.7578V31.9657H145.228C144.617 31.9657 144.176 31.8043 143.915 31.4814C143.88 31.4461 143.69 31.1635 143.339 30.6439L138.325 22.5768L141 18.9242L143.164 16.2603C143.494 15.8366 143.715 15.5843 143.82 15.5137C144.116 15.3018 144.587 15.1958 145.233 15.1958V14.4038H142.578L137.719 21.5426L135.379 17.4964L134.357 15.8315C134.117 15.4279 133.916 15.1252 133.756 14.9335C133.496 14.6157 133.22 14.3937 132.94 14.2726L129.158 14.8275L129.208 15.5692C129.313 15.554 129.463 15.5439 129.653 15.5439C130.51 15.5439 131.267 15.9476 131.913 16.7598C132.123 17.0222 132.454 17.5065 132.91 18.2078L134.037 19.9786L136.161 23.6009L131.953 29.3422L131.191 30.3462C130.981 30.6086 130.736 30.9466 130.455 31.3502C130.104 31.7538 129.553 31.9606 128.802 31.9606V32.7527C129.293 32.667 129.749 32.6216 130.169 32.6216C130.465 32.6216 130.685 32.6316 130.826 32.6468C130.966 32.667 131.196 32.6972 131.512 32.7527L133.671 29.2716L135.625 26.29L136.822 24.5999L141.215 32.0716L141.666 32.7426C142.362 32.6569 142.999 32.6216 143.575 32.6216C144.151 32.6216 144.762 32.667 145.458 32.7527L145.463 32.7578ZM166.247 22.9047C166.247 20.0341 165.346 17.7941 163.542 16.1695C161.829 14.6409 159.525 13.874 156.634 13.874C153.744 13.874 151.244 14.7771 149.451 16.5782C147.657 18.3843 146.761 20.6597 146.761 23.4042C146.761 26.3808 147.647 28.757 149.416 30.5379C151.134 32.2634 153.353 33.1261 156.088 33.1261C158.959 33.1261 161.373 32.1322 163.322 30.1545C165.275 28.1768 166.252 25.7552 166.252 22.9047H166.247ZM163.437 23.7271C163.437 26.2446 162.896 28.2323 161.809 29.6954C160.672 31.2241 159.044 31.9909 156.925 31.9909C154.475 31.9909 152.592 30.997 151.279 29.0042C150.142 27.299 149.571 25.1397 149.571 22.5364C149.571 20.251 150.107 18.455 151.174 17.1483C152.331 15.7256 154.009 15.0092 156.218 15.0092C158.598 15.0092 160.421 15.8113 161.679 17.4106C162.851 18.909 163.437 21.0128 163.437 23.722V23.7271ZM182.673 14.2625C182.393 14.2625 180.81 14.3029 177.919 14.3785C177.203 14.3937 176.256 14.4038 175.084 14.4038C174.753 14.4038 173.691 14.3836 171.908 14.3331C170.124 14.2877 168.662 14.2625 167.525 14.2625C167.525 14.4391 167.545 14.8578 167.59 15.5187C167.635 16.1796 167.655 16.7043 167.655 17.0928L167.68 18.576H168.466C168.466 18.2986 168.491 18.0009 168.547 17.6831C168.602 17.3652 168.667 16.9868 168.757 16.553C168.757 16.2351 168.832 16.0232 168.982 15.9173C169.133 15.8113 169.363 15.7558 169.679 15.7558L173.721 15.6247C173.741 15.7659 173.771 16.003 173.826 16.3411V29.5895C173.826 30.6842 173.711 31.3552 173.486 31.5974C173.26 31.8446 172.539 31.9657 171.332 31.9657V32.7578C171.422 32.7578 171.908 32.7376 172.805 32.6922C173.696 32.6468 174.443 32.6266 175.039 32.6266C175.179 32.6266 175.965 32.6619 177.403 32.7325C177.769 32.7477 178.245 32.7578 178.821 32.7578V31.9657C177.614 31.9657 176.877 31.8244 176.617 31.5419C176.426 31.33 176.326 30.6792 176.326 29.5844V18.2632C176.326 17.2038 176.361 16.3259 176.431 15.6196L180.529 15.7508C180.86 15.7508 181.1 15.8012 181.24 15.8971C181.381 15.993 181.451 16.2049 181.451 16.5378C181.486 16.7497 181.541 17.0726 181.621 17.5014C181.701 17.9353 181.741 18.2885 181.741 18.571H182.528V17.0877C182.528 16.9667 182.553 16.5631 182.608 15.887C182.658 15.2059 182.688 14.6661 182.688 14.2625H182.673ZM201.749 32.7578V31.9657C201.118 31.9657 200.652 31.8194 200.346 31.5268C200.041 31.2342 199.765 30.8608 199.52 30.4017C199.364 30.1041 199.179 29.6904 198.969 29.1606L192.642 14.1111H191.8C191.45 15.0798 191.074 16.0434 190.673 16.9919C190.603 17.1685 190.182 18.1119 189.411 19.8222L185.864 27.8085L184.577 30.5329C184.261 31.2392 183.895 31.6428 183.475 31.7488C183.074 31.8194 182.678 31.89 182.292 31.9606V32.7527C182.398 32.7527 182.813 32.7325 183.54 32.6871C184.266 32.6417 184.857 32.6216 185.313 32.6216C185.473 32.6216 185.909 32.6417 186.625 32.6871C187.342 32.7325 187.913 32.7527 188.334 32.7527V31.9606C187.948 31.9253 187.572 31.89 187.207 31.8547C186.47 31.7689 186.104 31.5116 186.104 31.0878C186.104 30.8608 186.36 30.1343 186.866 28.9185C186.936 28.7419 187.267 27.9851 187.863 26.6431H195.322L196.915 30.5077C197.005 30.7196 197.055 30.8911 197.055 31.0324C197.055 31.2947 196.935 31.4965 196.689 31.6277C196.444 31.7588 196.178 31.8497 195.888 31.89C195.597 31.9354 195.227 31.9556 194.771 31.9556V32.7477C194.876 32.7477 195.347 32.7275 196.188 32.6821C197.03 32.6367 197.721 32.6165 198.262 32.6165C198.438 32.6165 198.939 32.6367 199.77 32.6821C200.602 32.7275 201.263 32.7477 201.754 32.7477L201.749 32.7578ZM194.836 25.513H188.294L191.56 17.6427L194.841 25.513H194.836Z" fill="white"/>
</g>
<defs>
<clipPath id="clip0_6410_3398">
<rect width="213" height="47" fill="white"/>
</clipPath>
</defs>
</svg>
