<svg width="119" height="32" viewBox="0 0 119 32" fill="none" xmlns="http://www.w3.org/2000/svg">
<path fill-rule="evenodd" clip-rule="evenodd" d="M108.232 25.5938C108.509 26.0406 108.668 26.5671 108.668 27.1385C108.668 28.3681 107.921 29.4072 106.849 29.8332C106.503 29.9717 106.147 30.0133 105.777 30.0133H34.8531C33.7606 30.0133 32.8687 29.1197 32.8687 28.0252V26.2553C32.6163 26.671 32.2498 27.0104 31.7935 27.2424C31.2542 27.5161 30.6595 27.6234 30.058 27.6234C29.5567 27.6234 29.0554 27.5507 28.5921 27.3429C28.0217 27.0866 27.5584 26.6606 27.2818 26.096C27.23 25.9886 27.1816 25.8778 27.1435 25.767C26.8808 25.7046 26.6215 25.625 26.3691 25.528C25.5602 25.2128 24.8411 24.7348 24.2879 24.0629C23.7417 23.4014 23.4029 22.6221 23.2473 21.7804C23.0952 20.97 23.1125 20.1318 23.2231 19.3179C23.3061 18.6356 23.4582 17.9636 23.7071 17.3229C23.9353 16.7271 24.2291 16.1626 24.5956 15.6431C24.9517 15.1374 25.37 14.6837 25.8436 14.2888C26.2308 13.9702 26.6457 13.6931 27.0848 13.4576C23.4201 13.4333 19.3925 14.0221 16.2084 15.837C16.1531 16.1383 16.0287 16.4293 15.8316 16.689C15.4237 17.2294 15.033 17.8216 14.6734 18.4381C15.1747 19.1689 15.7763 19.8547 16.2983 20.5786C17.1592 21.7804 17.7711 23.0204 17.937 24.3261C20.1842 23.7685 22.0131 24.4301 24.2118 24.6413C24.9517 24.7141 25.5498 25.1505 25.8436 25.8362C26.1375 26.522 26.0407 27.2563 25.5844 27.8451C24.243 29.5665 22.5628 31.3744 20.3294 31.8108C18.383 32.1918 16.6648 31.416 15.2473 30.1864C14.7357 30.228 14.2309 30.2349 13.7365 30.1968C13.2975 30.5744 12.6959 30.7545 12.084 30.6436C5.29406 29.3933 2.19988 21.1189 3.1506 14.4862C2.61128 14.6525 2.02702 14.5763 1.51881 14.2576C0.834283 13.8247 0.49202 13.0662 0.623394 12.2661C1.55684 6.43352 6.70114 2.39503 12.5058 2.75524C18.3139 0.0640733 25.211 0.400037 30.5869 3.98826C31.1159 4.34154 31.4236 4.87146 31.465 5.50875C31.51 6.14604 31.2784 6.7106 30.8013 7.13315L29.3043 8.45969L30.8842 10.2503C31.1643 10.5655 31.3268 10.9396 31.3752 11.331L32.9067 11.2097C33.5532 11.1578 34.1271 11.3933 34.5558 11.8817C34.8116 12.1761 34.9706 12.512 35.0294 12.8688C35.0467 12.8757 35.0674 12.8792 35.0847 12.8861C35.8211 13.1285 36.4987 13.5026 37.0795 14.0187C37.4598 14.3546 37.7779 14.7425 38.0441 15.1686C38.1271 15.1547 38.21 15.1443 38.2965 15.1408L40.8306 15.0092C41.3561 14.9815 41.8297 15.1409 42.2135 15.4733C42.4728 15.2932 42.7528 15.1478 43.057 15.0508C43.3267 14.9642 43.6033 14.9088 43.8867 14.8915C43.9144 14.8915 43.9421 14.888 43.9732 14.8845C44.0562 14.8776 44.1391 14.8742 44.2221 14.8742C44.7752 14.8742 45.3353 14.9434 45.8539 15.1512C46.1996 15.2898 46.5108 15.4872 46.7735 15.7331C47.1331 15.4872 47.5445 15.3313 47.9732 15.2586C48.2497 15.2101 48.5332 15.1789 48.8133 15.1582C48.8686 15.1547 48.917 15.1512 48.9757 15.1512H49.0587C49.1901 15.1443 49.3249 15.1408 49.4563 15.1339C49.6845 15.1235 49.9092 15.1131 50.1374 15.1027C50.4278 15.0889 50.7182 15.075 51.0086 15.0647C51.3059 15.0543 51.6067 15.0439 51.904 15.0335C52.1978 15.0231 52.4883 15.0127 52.7821 15.0058C53.0345 14.9988 53.2869 14.9954 53.5392 14.9954C53.8227 14.9954 54.1028 15.0335 54.3793 15.0993C54.6594 15.1686 54.929 15.2725 55.1814 15.4145C55.4511 15.2551 55.7622 15.1582 56.0976 15.1408L58.6317 15.0092C59.1572 14.9815 59.6308 15.1409 60.0146 15.4733C60.2739 15.2932 60.5539 15.1478 60.8581 15.0508C61.1278 14.9642 61.4044 14.9088 61.6878 14.8915C61.7155 14.8915 61.7432 14.888 61.7743 14.8845C61.8573 14.8776 61.9402 14.8742 62.0232 14.8742C62.5763 14.8742 63.1364 14.9434 63.655 15.1512C63.8486 15.2274 64.0318 15.3244 64.2012 15.4353C64.4571 15.3036 64.7475 15.224 65.0482 15.217C65.1312 15.2101 65.2177 15.2032 65.3006 15.1963C65.4873 15.1824 65.674 15.1755 65.8607 15.1686C66.1338 15.1582 66.4104 15.1512 66.6835 15.1478C66.9048 15.1374 67.126 15.1305 67.3473 15.1201C67.6239 15.1097 67.897 15.0993 68.1736 15.0889C68.464 15.0785 68.7509 15.0681 69.0413 15.0543C69.3352 15.0404 69.6325 15.0335 69.9263 15.0231C70.196 15.0162 70.4622 15.0092 70.7319 15.0023C70.9462 14.9988 71.164 14.9954 71.3784 14.9954C71.6653 14.9954 71.9523 15.0335 72.2288 15.1027C72.5227 15.1755 72.7993 15.2898 73.0586 15.4422C73.3179 15.3071 73.6117 15.2274 73.916 15.217C73.9989 15.2101 74.0854 15.2032 74.1683 15.1963C74.355 15.1824 74.5417 15.1755 74.7284 15.1686C75.0015 15.1582 75.2781 15.1512 75.5512 15.1478C75.7725 15.1374 75.9937 15.1305 76.215 15.1201C76.4916 15.1097 76.7647 15.0993 77.0413 15.0889C77.3317 15.0785 77.6186 15.0681 77.909 15.0543C78.2029 15.0404 78.5002 15.0335 78.7941 15.0231C79.0603 15.0162 79.3299 15.0092 79.5996 15.0023C79.8139 14.9988 80.0317 14.9954 80.2461 14.9954C80.533 14.9954 80.8165 15.0335 81.0966 15.1027C81.4665 15.1928 81.8156 15.3521 82.1268 15.5703C82.3169 15.7019 82.4863 15.8543 82.635 16.0275C83.2123 15.65 83.845 15.3729 84.5157 15.1963C85.2279 15.0058 85.9608 14.9192 86.6972 14.9192C87.5788 14.9192 88.4673 15.0473 89.2867 15.3902C89.4837 15.4733 89.6739 15.5669 89.8536 15.6742C90.2097 15.3348 90.6937 15.1305 91.2227 15.1305C91.3748 15.1305 91.5235 15.1305 91.6756 15.1235C91.8415 15.1201 92.0109 15.1166 92.1769 15.1166C92.291 15.1166 92.4085 15.1166 92.5226 15.1166C92.7508 15.1027 92.9824 15.0889 93.2106 15.075C93.4491 15.0612 93.6842 15.0439 93.9228 15.03C94.1578 15.0127 94.3895 14.9988 94.6246 14.9885C94.8216 14.9781 95.0187 14.9711 95.2157 14.9711C95.6721 14.9711 96.1284 14.9954 96.5813 15.0543C97.0895 15.1201 97.5908 15.2482 98.0541 15.4595C98.1682 15.5114 98.2788 15.5669 98.3825 15.6292C98.7179 15.3348 99.1535 15.1547 99.6306 15.1408C99.7032 15.127 99.7792 15.1201 99.8553 15.1131L102.566 14.9365C103.16 14.8984 103.693 15.0993 104.101 15.5149C104.377 15.3902 104.661 15.2829 104.948 15.1893C105.459 15.03 105.988 14.94 106.528 14.9296C107.385 14.9123 108.128 15.4387 108.419 16.2076C108.996 15.7608 109.639 15.4249 110.341 15.2136C110.994 15.0162 111.665 14.9157 112.346 14.9157C112.837 14.9157 113.335 14.9469 113.815 15.0404C114.241 15.1235 114.662 15.2448 115.064 15.4145C115.42 15.5669 115.762 15.7504 116.08 15.9721C116.312 16.1349 116.54 16.3081 116.761 16.4882C117.079 16.7479 117.297 17.0908 117.407 17.458C117.446 17.5064 117.484 17.5549 117.522 17.6069C117.833 18.0571 117.94 18.5559 117.843 19.0962C117.753 19.5811 117.67 20.066 117.598 20.5509C117.885 20.7864 118.106 21.1016 118.234 21.4722C118.337 21.7804 118.403 22.0991 118.41 22.4247C118.417 22.6914 118.396 22.9615 118.341 23.2213C118.293 23.4395 118.227 23.6542 118.14 23.8586C118.133 23.8724 118.13 23.8828 118.123 23.8967C118.057 24.0456 117.985 24.1911 117.902 24.3296C117.684 24.6933 117.383 24.9738 117.027 25.199C116.799 25.3444 116.557 25.4656 116.308 25.5696C116.052 25.6769 115.79 25.7601 115.523 25.8259C115.216 25.9021 114.901 25.9471 114.583 25.9471C113.833 25.9471 113.089 25.8051 112.453 25.3964C112.294 25.483 112.132 25.5592 111.962 25.625C111.375 25.8605 110.742 25.954 110.113 25.954C109.484 25.954 108.834 25.8466 108.246 25.5869" fill="white"/>
<path fill-rule="evenodd" clip-rule="evenodd" d="M7.18266 18.2511H7.19649C7.40738 16.4674 7.83607 14.9815 8.5448 13.6377C9.3123 12.183 10.3909 10.9084 11.8603 9.61997C11.919 8.94805 12.1092 8.19992 12.4964 7.42755C8.84212 11.1058 7.55258 13.7485 7.18266 18.2511ZM8.16796 18.0779L8.19908 18.071C8.90089 15.3002 9.55776 13.8697 12.244 11.9198C12.0953 11.6531 11.9709 11.2894 11.8983 10.8565C10.8093 11.8886 9.97953 12.9242 9.37453 14.0741C8.75914 15.2413 8.37194 16.5367 8.16451 18.0745L8.16796 18.0779ZM24.7833 5.17972C25.2915 5.17972 25.7029 5.59188 25.7029 6.10102C25.7029 6.61016 25.2915 7.02232 24.7833 7.02232C24.275 7.02232 23.8636 6.61016 23.8636 6.10102C23.8636 5.59188 24.275 5.17972 24.7833 5.17972ZM19.6631 4.63248C18.7954 5.3148 18.2249 6.46123 18.2249 7.76005C18.2249 9.49875 19.2448 10.9638 20.6381 11.4106C19.632 10.6867 18.9233 9.30133 18.8645 7.68732C18.823 6.51664 19.1273 5.43948 19.6631 4.63248ZM14.2526 15.4907C12.6277 17.6311 10.0521 22.3519 10.9718 25.0847C11.6286 27.0346 13.4713 27.755 15.3002 28.1915C12.9873 28.4478 11.2068 27.7308 10.2077 26.0995C8.0919 22.6429 11.1965 17.5411 14.2526 15.4941V15.4907ZM16.0089 28.1776C19.3831 31.6654 21.9449 29.2894 24.0192 26.6259C21.5542 26.387 18.2388 25.1435 16.1921 27.6685C17.7444 27.8416 19.1515 27.9317 20.6968 27.71C18.868 28.3369 17.9587 28.1534 16.0089 28.1811V28.1776ZM15.1999 27.194C10.4082 26.0545 11.4488 22.6359 12.9804 19.4841C14.3321 21.493 17.008 23.7235 15.5906 26.7749C14.7194 25.5245 13.9899 24.3539 13.492 22.9026C13.7444 24.8007 14.3321 25.4934 15.1999 27.1905V27.194ZM29.4816 5.64383L26.498 8.28651L29.3917 11.5665C22.6744 11.0885 14.4359 12.37 10.5258 18.5143C9.27772 20.4782 8.55517 22.7883 9.02535 24.8457C9.22932 25.7358 9.64764 26.5359 10.2561 27.2147C10.8473 27.8763 11.6079 28.3854 12.4376 28.6902C5.77904 27.4641 3.29332 17.2363 6.07636 11.4522C4.90783 11.4279 3.72547 11.7951 2.57422 12.5813C3.42469 7.25784 8.23019 4.25842 12.8663 4.78487C17.8412 2.29806 24.2578 2.16298 29.4747 5.64383H29.4816Z" fill="#00A0CF"/>
<path d="M111.171 22.3658C111.344 22.3658 111.506 22.3173 111.658 22.2238C111.814 22.1303 111.956 22.0021 112.087 21.8463C112.222 21.6904 112.346 21.5068 112.464 21.299C112.582 21.0912 112.689 20.873 112.789 20.6479C112.889 20.4193 112.983 20.1941 113.066 19.9621C113.149 19.7335 113.228 19.5153 113.304 19.3109C113.173 19.162 113.031 19.0443 112.882 18.9473C112.734 18.8538 112.568 18.8053 112.384 18.7983C112.163 18.7949 111.942 18.8468 111.717 18.9577C111.496 19.065 111.295 19.2244 111.119 19.4391C110.943 19.6504 110.798 19.9101 110.684 20.2219C110.569 20.5301 110.514 20.8834 110.514 21.2782C110.514 21.6038 110.573 21.867 110.697 22.0645C110.818 22.2653 110.977 22.3658 111.171 22.3658ZM115.057 18.594L115.883 18.7429C115.769 19.3768 115.672 19.9309 115.603 20.4124C115.534 20.8938 115.482 21.3094 115.444 21.6662C115.444 21.7181 115.441 21.7631 115.441 21.8082V21.9294C115.441 22.0229 115.461 22.0852 115.503 22.1199C115.544 22.1545 115.596 22.1718 115.658 22.1718C115.721 22.1718 115.79 22.1649 115.866 22.1476C115.942 22.1268 116.011 22.1095 116.077 22.0956C116.146 22.0783 116.205 22.0714 116.253 22.0714C116.301 22.0714 116.336 22.0922 116.346 22.1268C116.388 22.255 116.412 22.3727 116.416 22.4905C116.416 22.6048 116.412 22.7121 116.391 22.8126C116.371 22.913 116.34 23.0065 116.305 23.0931C116.267 23.1797 116.229 23.2525 116.191 23.3148C116.149 23.3841 116.07 23.4603 115.949 23.533C115.831 23.6092 115.693 23.6785 115.534 23.7443C115.378 23.8101 115.212 23.862 115.043 23.9036C114.87 23.9452 114.715 23.9694 114.573 23.9694C114.096 23.9694 113.736 23.8863 113.494 23.72C113.252 23.5538 113.093 23.3009 113.014 22.9615C113.014 22.9581 113.014 22.9546 113.01 22.9477C113.01 22.9442 113.01 22.9373 113.01 22.9269C112.972 22.7537 112.958 22.5667 112.965 22.3623C112.972 22.158 113.003 21.9328 113.048 21.6904C112.907 21.9987 112.754 22.2861 112.595 22.5597C112.436 22.8334 112.243 23.0758 112.021 23.2836C111.8 23.4949 111.534 23.6611 111.226 23.7824C110.915 23.9071 110.542 23.9694 110.11 23.9694C109.65 23.9694 109.263 23.8863 108.948 23.727C108.637 23.5676 108.391 23.339 108.215 23.0446C108.039 22.7502 107.932 22.4004 107.897 21.9952C107.859 21.5865 107.894 21.1432 107.994 20.6583C108.111 19.9967 108.312 19.4252 108.599 18.9542C108.886 18.4797 109.225 18.0883 109.619 17.7835C110.009 17.4753 110.442 17.2536 110.915 17.1081C111.385 16.9661 111.862 16.8969 112.346 16.8969C112.765 16.8969 113.131 16.928 113.446 16.9869C113.757 17.0458 114.04 17.1324 114.282 17.2363C114.528 17.3402 114.746 17.4614 114.943 17.5965C115.136 17.735 115.327 17.877 115.51 18.0294L115.064 18.5905L115.057 18.594ZM99.6897 17.122L99.9732 17.1151L99.9801 17.0908L102.691 16.9142C102.58 17.3437 102.476 17.7662 102.376 18.1749C102.334 18.3515 102.293 18.5317 102.248 18.7152C102.206 18.8988 102.162 19.0824 102.12 19.2625C102.079 19.4426 102.041 19.6157 102.006 19.7785C101.975 19.9448 101.944 20.0902 101.92 20.2219C102.02 20.0002 102.158 19.7647 102.328 19.5153C102.5 19.2694 102.697 19.0235 102.926 18.7845C103.154 18.5455 103.406 18.3134 103.683 18.0883C103.959 17.8667 104.253 17.6692 104.564 17.4995C104.875 17.3263 105.2 17.1913 105.536 17.0839C105.875 16.98 106.213 16.9211 106.563 16.9142L106.656 17.8182C106.397 17.8528 106.151 17.9013 105.926 17.9567C105.698 18.0156 105.48 18.0849 105.273 18.1714C105.232 18.2684 105.2 18.4451 105.18 18.691C105.162 18.9369 105.169 19.2209 105.204 19.5395C105.235 19.8582 105.308 20.1976 105.415 20.5509C105.522 20.9076 105.678 21.2436 105.888 21.5622C106.13 21.8324 106.376 22.0541 106.621 22.2169C106.867 22.3831 107.14 22.5355 107.437 22.6706C107.368 22.8195 107.282 22.9719 107.178 23.1243C107.074 23.2802 106.95 23.4152 106.798 23.5399C106.649 23.6611 106.48 23.7616 106.293 23.8413C106.103 23.9209 105.895 23.959 105.667 23.959C105.484 23.9556 105.294 23.9313 105.09 23.8897C104.889 23.8482 104.689 23.7858 104.495 23.7027C104.298 23.6161 104.111 23.5157 103.932 23.391C103.755 23.2663 103.596 23.1243 103.455 22.9615C103.313 22.7987 103.199 22.6152 103.109 22.4143C103.019 22.2134 102.967 21.9917 102.953 21.7458C102.888 21.3752 102.867 21.0323 102.877 20.7241C102.888 20.4124 102.946 20.1249 103.047 19.8582C102.829 20.1387 102.639 20.4331 102.476 20.7414C102.314 21.0496 102.168 21.3579 102.044 21.6696C101.916 21.9813 101.809 22.2861 101.719 22.5909C101.626 22.8922 101.543 23.1797 101.467 23.4533C101.453 23.5122 101.422 23.5711 101.384 23.63C101.342 23.6889 101.29 23.7443 101.228 23.7962C101.162 23.8447 101.083 23.8863 100.99 23.9175C100.896 23.9486 100.786 23.9659 100.661 23.9659C100.509 23.9659 100.385 23.959 100.284 23.9417C100.184 23.9278 100.094 23.9105 100.018 23.8863C99.942 23.862 99.8694 23.8378 99.8003 23.8135C99.7312 23.7893 99.6516 23.7651 99.5687 23.7443C99.4822 23.7235 99.3785 23.7062 99.261 23.6958C99.14 23.6819 98.9948 23.675 98.8184 23.675L99.783 18.1992L99.4753 18.213L99.6931 17.1185L99.6897 17.122ZM93.9784 18.6494C93.93 18.8364 93.8885 19.0339 93.8505 19.2382C93.809 19.4426 93.7675 19.6504 93.7225 19.8651L93.8055 19.8513C93.9645 19.8478 94.1167 19.8443 94.2688 19.8409C94.4209 19.8409 94.5661 19.8409 94.7113 19.8443C94.8358 19.8305 94.9568 19.8132 95.0743 19.7924C95.1918 19.7681 95.2956 19.7335 95.3855 19.6781C95.4753 19.6261 95.5479 19.5569 95.6033 19.4737C95.6586 19.3906 95.6862 19.2798 95.6862 19.1482C95.6862 19.0304 95.6516 18.9369 95.5894 18.8676C95.5237 18.7983 95.4442 18.7499 95.3474 18.7187C95.2506 18.6875 95.1504 18.6667 95.0397 18.6598C94.9291 18.6529 94.8323 18.6459 94.7459 18.6459H94.4001C94.2722 18.6459 94.1339 18.6459 93.9887 18.6529L93.9784 18.6494ZM93.2696 22.2861H93.6707C94.0129 22.2861 94.3034 22.2723 94.535 22.2446C94.7666 22.2203 94.9533 22.1753 95.095 22.1129C95.2333 22.0541 95.3336 21.9709 95.3924 21.8705C95.4511 21.7701 95.4788 21.6488 95.4788 21.4999C95.4788 21.3891 95.4442 21.3059 95.3751 21.2401C95.3059 21.1743 95.2091 21.1258 95.0847 21.0947C94.9602 21.0635 94.8081 21.0427 94.6318 21.0358C94.4555 21.0289 94.2549 21.0289 94.0337 21.0289L93.5013 21.0358L93.2766 22.2861H93.2696ZM91.4892 18.1888L90.981 18.2095L91.2161 17.1151C91.3889 17.1151 91.5549 17.1151 91.7243 17.1081C91.866 17.1047 92.0147 17.1012 92.1703 17.1012C92.3258 17.1012 92.4676 17.1012 92.5886 17.0977C92.8202 17.0839 93.0588 17.07 93.3146 17.0562C93.567 17.0423 93.8124 17.025 94.051 17.0077C94.2895 16.9938 94.5108 16.9765 94.7113 16.9661C94.9153 16.9592 95.0812 16.9523 95.2091 16.9523C95.6067 16.9523 95.9766 16.9731 96.3223 17.0181C96.6681 17.0596 96.9654 17.1428 97.2212 17.2605C97.4771 17.3748 97.6776 17.5411 97.8262 17.742C97.9714 17.9463 98.044 18.213 98.044 18.5351C98.044 18.7568 98.0164 18.9542 97.9611 19.1205C97.9092 19.2867 97.8297 19.4356 97.7329 19.5673C97.6361 19.6954 97.5151 19.8062 97.3768 19.8963C97.2385 19.9863 97.0829 20.0625 96.9101 20.1249C97.2973 20.2461 97.5877 20.4124 97.7813 20.6236C97.9749 20.8349 98.0717 21.0981 98.0717 21.4168C98.0717 21.8705 97.968 22.255 97.7675 22.5736C97.5635 22.8922 97.28 23.152 96.917 23.3529C96.554 23.5538 96.1218 23.7027 95.6171 23.7962C95.1158 23.8897 94.5626 23.9382 93.9611 23.9382C93.7225 23.9382 93.5082 23.9382 93.325 23.9348C93.1383 23.9348 92.9689 23.9313 92.8133 23.9278C92.433 23.914 92.0493 23.8897 91.6655 23.8516C91.2818 23.8135 90.8911 23.7304 90.5039 23.6023L91.4892 18.1888ZM87.3233 20.3327C87.3405 20.2011 87.3544 20.066 87.3717 19.9378C87.3855 19.8062 87.4097 19.685 87.4408 19.5673L87.3717 19.6088C87.3406 19.5014 87.2956 19.3975 87.2472 19.2971C87.1953 19.2001 87.1331 19.1135 87.0536 19.0408C86.9775 18.9681 86.8808 18.9092 86.7701 18.8642C86.6595 18.8226 86.5281 18.7983 86.3725 18.7983C86.1651 18.7983 85.9542 18.8468 85.7364 18.9438C85.5186 19.0408 85.3285 19.1863 85.1521 19.3837C84.9793 19.5811 84.8375 19.8305 84.7269 20.1353C84.6163 20.4435 84.561 20.8037 84.561 21.2228C84.561 21.4237 84.5852 21.6003 84.637 21.7493C84.6889 21.9017 84.7615 22.0264 84.8514 22.1233C84.9413 22.2203 85.045 22.2965 85.1591 22.345C85.2732 22.3935 85.3941 22.4212 85.5221 22.4212C85.8263 22.4212 86.0891 22.3589 86.3069 22.2342C86.5247 22.106 86.7044 21.9432 86.8496 21.7424C86.9914 21.5415 87.102 21.3163 87.1781 21.0704C87.2541 20.8245 87.3025 20.5786 87.3233 20.3292V20.3327ZM89.0588 18.549C89.2178 18.5801 89.3526 18.6425 89.4702 18.7429C89.5843 18.8399 89.6811 18.9611 89.7537 19.1031C89.8297 19.2451 89.885 19.4079 89.9196 19.588C89.9576 19.7681 89.9715 19.9552 89.9715 20.1457C89.9715 20.4782 89.9334 20.8037 89.8643 21.1189C89.7952 21.4376 89.6776 21.7354 89.5186 22.0194C89.3561 22.3034 89.1487 22.5667 88.8928 22.8057C88.6335 23.0446 88.3224 23.249 87.9559 23.4222C87.5895 23.5953 87.1608 23.7339 86.6699 23.8309C86.1824 23.9278 85.6223 23.9798 84.9966 23.9798C84.3293 23.9798 83.7866 23.8967 83.3613 23.7408C82.9361 23.5815 82.6111 23.3564 82.3795 23.0585C82.1513 22.7641 82.0061 22.4108 81.9542 21.9952C81.9024 21.583 81.9093 21.1189 81.9854 20.6098C82.0718 19.9517 82.2585 19.3906 82.5385 18.9196C82.822 18.4485 83.1712 18.0675 83.593 17.7697C84.0113 17.4718 84.4884 17.2536 85.0173 17.1116C85.5463 16.9696 86.1029 16.9003 86.6906 16.9003C87.4028 16.9003 88.0078 17.0042 88.5125 17.219C89.0173 17.4302 89.3941 17.7524 89.6396 18.1888L89.0622 18.5455L89.0588 18.549ZM80.72 21.8359C80.6578 22.2134 80.5817 22.5355 80.4988 22.8022C80.4158 23.0689 80.2982 23.2836 80.1427 23.4533C79.9906 23.623 79.79 23.7443 79.5446 23.817C79.2991 23.8932 78.988 23.9313 78.6111 23.9313C78.4798 23.9313 78.3484 23.9105 78.2308 23.8759C78.1098 23.8378 78.0096 23.7893 77.9197 23.7304C77.8333 23.6715 77.7641 23.6092 77.7192 23.5469C77.6777 23.481 77.6639 23.4187 77.6777 23.3598C77.771 23.0723 77.8609 22.7433 77.9543 22.3762C78.0476 22.009 78.134 21.635 78.217 21.254C78.3 20.873 78.3795 20.4955 78.4521 20.1283C78.5213 19.7577 78.5869 19.4218 78.6457 19.1239L76.281 19.1447C76.2257 19.401 76.1703 19.6608 76.1219 19.9309C76.0701 20.2011 76.0182 20.4678 75.9664 20.7345C75.918 21.0012 75.8696 21.2609 75.8246 21.5172C75.7762 21.7735 75.7347 22.016 75.6933 22.248C75.5965 22.7849 75.5066 23.3113 75.4236 23.8239L72.8791 23.6992L73.9647 17.1982C73.9647 17.1982 73.9889 17.2017 74.0338 17.1982C74.0822 17.1913 74.1686 17.1843 74.2896 17.1774C74.4141 17.1705 74.58 17.1601 74.7944 17.1532C75.0053 17.1462 75.2715 17.1393 75.593 17.1324C75.7935 17.122 76.0217 17.1151 76.2844 17.1047C76.5437 17.0943 76.8168 17.0839 77.1038 17.0735C77.3907 17.0631 77.6811 17.0527 77.9819 17.0389C78.2827 17.025 78.5696 17.0181 78.8462 17.0077C79.1228 17.0008 79.3821 16.9938 79.6241 16.9869C79.8626 16.9835 80.0701 16.98 80.236 16.98C80.3536 16.98 80.478 16.9973 80.6129 17.0285C80.7477 17.0631 80.8687 17.1185 80.9828 17.1947C81.0934 17.2709 81.1833 17.3748 81.2559 17.503C81.3319 17.6311 81.3665 17.7905 81.3665 17.9775C81.3665 18.1645 81.3562 18.31 81.3354 18.4381C81.3147 18.5628 81.2835 18.6667 81.2421 18.7499L80.7235 21.8359H80.72ZM71.8489 21.8359C71.7866 22.2134 71.7106 22.5355 71.6276 22.8022C71.5446 23.0689 71.4271 23.2836 71.2715 23.4533C71.1194 23.623 70.9189 23.7443 70.6734 23.817C70.4279 23.8932 70.1168 23.9313 69.74 23.9313C69.6086 23.9313 69.4772 23.9105 69.3597 23.8759C69.2387 23.8378 69.1384 23.7893 69.0485 23.7304C68.9621 23.6715 68.893 23.6092 68.848 23.5469C68.8065 23.481 68.7927 23.4187 68.8065 23.3598C68.8999 23.0723 68.9898 22.7433 69.0831 22.3762C69.1764 22.009 69.2629 21.635 69.3458 21.254C69.4288 20.873 69.5083 20.4955 69.5809 20.1283C69.6501 19.7577 69.7158 19.4218 69.7745 19.1239L67.4098 19.1447C67.3545 19.401 67.2992 19.6608 67.2508 19.9309C67.1989 20.2011 67.1471 20.4678 67.0952 20.7345C67.0468 21.0012 66.995 21.2609 66.9535 21.5172C66.9051 21.7735 66.8636 22.016 66.8221 22.248C66.7253 22.7849 66.6354 23.3113 66.5524 23.8239L64.0079 23.6992L65.0935 17.1982C65.0935 17.1982 65.1177 17.2017 65.1626 17.1982C65.211 17.1913 65.2975 17.1843 65.4185 17.1774C65.5429 17.1705 65.7089 17.1601 65.9232 17.1532C66.1341 17.1462 66.4003 17.1393 66.7218 17.1324C66.9224 17.122 67.1505 17.1151 67.4133 17.1047C67.6726 17.0943 67.9457 17.0839 68.2326 17.0735C68.5196 17.0631 68.81 17.0527 69.1108 17.0389C69.4115 17.025 69.6985 17.0181 69.9751 17.0077C70.2516 17.0008 70.5109 16.9938 70.7529 16.9869C70.9915 16.9835 71.1989 16.98 71.3648 16.98C71.4824 16.98 71.6068 16.9973 71.7417 17.0285C71.8765 17.0631 71.9975 17.1185 72.1116 17.1947C72.2222 17.2709 72.3121 17.3748 72.3847 17.503C72.4608 17.6311 72.4954 17.7905 72.4954 17.9775C72.4954 18.1645 72.485 18.31 72.4642 18.4381C72.4435 18.5628 72.4124 18.6667 72.3709 18.7499L71.8523 21.8359H71.8489ZM56.1878 17.122L58.7219 16.9904C58.6597 17.3437 58.5905 17.7143 58.5214 18.1022C58.4626 18.4381 58.3969 18.8157 58.3278 19.2347C58.2586 19.6573 58.1895 20.0868 58.1272 20.5336C58.3105 20.3223 58.4937 20.111 58.6735 19.9067C58.8533 19.7023 59.0192 19.5084 59.1782 19.3283C59.3338 19.1482 59.4721 18.9819 59.5966 18.8364C59.7176 18.691 59.8178 18.5698 59.8939 18.4728C60.1393 18.1333 60.3571 17.8597 60.5438 17.6485C60.7305 17.4406 60.8965 17.2779 61.0486 17.167C61.1972 17.0527 61.3355 16.9765 61.46 16.9384C61.581 16.8969 61.7054 16.8761 61.8334 16.8726C61.8679 16.8692 61.899 16.8657 61.9232 16.8657C61.9509 16.8657 61.982 16.8622 62.0166 16.8622C62.3934 16.8622 62.6873 16.9073 62.9085 16.9938C63.1264 17.0804 63.2819 17.2155 63.3787 17.3991C63.4755 17.5826 63.517 17.8112 63.5101 18.0883C63.5032 18.3619 63.4617 18.691 63.3856 19.0685L62.6251 23.0758C62.5939 23.2213 62.5386 23.3494 62.4487 23.4603C62.3589 23.5711 62.2482 23.6611 62.1203 23.7339C61.9924 23.8066 61.8541 23.8586 61.7054 23.8932C61.5568 23.9313 61.4081 23.9486 61.2629 23.9486C61.0728 23.9486 60.8999 23.9382 60.7409 23.9209C60.5819 23.9001 60.4436 23.8794 60.3226 23.8551C60.1843 23.8309 60.0564 23.7997 59.9388 23.7616C59.9941 23.4395 60.0529 23.1001 60.122 22.7398C60.1774 22.4281 60.2361 22.0783 60.3087 21.68C60.3779 21.2852 60.447 20.873 60.5196 20.447C60.4885 20.4955 60.4609 20.5405 60.4332 20.589C60.4021 20.6375 60.3744 20.686 60.3468 20.7379C60.2327 20.9042 60.0771 21.112 59.8766 21.3544C59.6761 21.6003 59.4513 21.8532 59.2093 22.1164C58.9639 22.3796 58.708 22.6325 58.4384 22.8784C58.1687 23.1243 57.906 23.339 57.6502 23.5122C57.5948 23.5642 57.5326 23.6196 57.46 23.6681C57.3839 23.7166 57.3079 23.7616 57.2284 23.8032C57.1454 23.8413 57.0624 23.8724 56.976 23.8967C56.8896 23.9209 56.7997 23.9313 56.7132 23.9313C56.333 23.9313 56.0356 23.8932 55.8178 23.817C55.6 23.7408 55.4479 23.6161 55.358 23.4533C55.2681 23.2905 55.2232 23.0723 55.2301 22.8057C55.237 22.539 55.2785 22.2169 55.3511 21.8428L56.205 17.1289L56.1878 17.122ZM45.83 22.1026C45.8819 22.1164 45.9268 22.1233 45.9752 22.1233C46.0755 22.1233 46.1723 22.1095 46.2656 22.0749C46.3589 22.0437 46.4488 21.9848 46.5387 21.8982C46.6252 21.8116 46.7116 21.6973 46.7911 21.5519C46.8706 21.4029 46.9398 21.2159 47.002 20.9838C47.0746 20.7171 47.1472 20.3569 47.2232 19.9067C47.2993 19.4564 47.3719 18.9542 47.4341 18.4C47.4722 18.1264 47.524 17.9117 47.5897 17.7524C47.6554 17.593 47.7453 17.4718 47.8594 17.3852C47.9769 17.2986 48.1221 17.2398 48.3019 17.2086C48.4817 17.1774 48.7029 17.1497 48.9657 17.1289H49.0936C49.1869 17.1255 49.3321 17.1185 49.5327 17.1081C49.7332 17.0977 49.9648 17.0874 50.2275 17.077C50.4903 17.0631 50.7703 17.0527 51.0711 17.0389C51.3719 17.0285 51.6692 17.0181 51.9665 17.0077C52.2604 16.9973 52.5473 16.9869 52.817 16.9834C53.0901 16.9765 53.3252 16.9731 53.5257 16.9731C53.6433 16.9731 53.7677 16.9904 53.9025 17.0215C54.0339 17.0527 54.1584 17.1081 54.2725 17.1878C54.3866 17.264 54.4764 17.3679 54.5525 17.4961C54.6251 17.6242 54.6631 17.7835 54.6631 17.974C54.6631 18.3308 54.6216 18.5905 54.5318 18.7602L54.0166 21.8324C53.951 22.2099 53.8784 22.532 53.7954 22.7987C53.7089 23.0654 53.5914 23.2802 53.4393 23.4499C53.2837 23.6196 53.0866 23.7408 52.8412 23.8135C52.5957 23.8897 52.288 23.9278 51.9112 23.9278C51.7798 23.9278 51.6519 23.9071 51.5309 23.8724C51.4099 23.8343 51.3097 23.7858 51.2232 23.727C51.1368 23.6681 51.0711 23.6057 51.0227 23.5434C50.9778 23.4776 50.9639 23.4152 50.9812 23.3564C51.0746 23.0689 51.1644 22.7398 51.2543 22.3727C51.3442 22.0056 51.4307 21.6315 51.5171 21.2505C51.6035 20.8695 51.6761 20.492 51.7522 20.1249C51.8248 19.7543 51.8905 19.4183 51.9423 19.1205L49.9855 19.1412C49.9544 19.3629 49.9268 19.5776 49.8922 19.7855C49.8611 19.9933 49.83 20.1941 49.7954 20.3916C49.6813 20.9596 49.5292 21.4687 49.3425 21.919C49.1524 22.3658 48.9173 22.7433 48.6407 23.0516C48.3641 23.3598 48.0426 23.5953 47.6692 23.7547C47.2993 23.9175 46.8775 23.9971 46.4004 23.9971C46.2621 23.9971 46.1342 23.9936 46.0098 23.9833C45.8853 23.9729 45.7747 23.9625 45.6779 23.9486C45.5811 23.9348 45.4981 23.9244 45.4324 23.914C45.3667 23.9036 45.3252 23.8932 45.3045 23.8897L45.83 22.106V22.1026ZM38.3901 17.122L40.9242 16.9904C40.862 17.3437 40.7929 17.7143 40.7237 18.1022C40.6649 18.4381 40.5993 18.8157 40.5301 19.2347C40.461 19.6573 40.3918 20.0868 40.3296 20.5336C40.5128 20.3223 40.6961 20.111 40.8758 19.9067C41.0556 19.7023 41.2215 19.5084 41.3771 19.3283C41.5327 19.1482 41.671 18.9819 41.7954 18.8364C41.9164 18.691 42.0167 18.5698 42.0928 18.4728C42.3382 18.1333 42.556 17.8597 42.7427 17.6485C42.9294 17.4406 43.0954 17.2779 43.2475 17.167C43.3961 17.0527 43.5344 16.9765 43.6589 16.9384C43.7799 16.8969 43.9043 16.8761 44.0323 16.8726C44.0668 16.8692 44.0979 16.8657 44.1221 16.8657C44.1498 16.8657 44.1809 16.8622 44.2155 16.8622C44.5923 16.8622 44.8862 16.9073 45.1074 16.9938C45.3252 17.0804 45.4808 17.2155 45.5776 17.3991C45.6744 17.5826 45.7159 17.8112 45.709 18.0883C45.7021 18.3619 45.6606 18.691 45.5845 19.0685L44.8239 23.0758C44.7928 23.2213 44.7375 23.3494 44.6476 23.4603C44.5577 23.5711 44.4471 23.6611 44.3192 23.7339C44.1913 23.8066 44.053 23.8586 43.9043 23.8932C43.7557 23.9313 43.6105 23.9486 43.4618 23.9486C43.2717 23.9486 43.0988 23.9382 42.9398 23.9209C42.7807 23.9001 42.6425 23.8794 42.5215 23.8551C42.3832 23.8309 42.2553 23.7997 42.1377 23.7616C42.193 23.4395 42.2518 23.1001 42.3209 22.7398C42.3763 22.4281 42.435 22.0783 42.5076 21.68C42.5768 21.2852 42.6459 20.873 42.7185 20.447C42.6874 20.4955 42.6597 20.5405 42.6321 20.589C42.601 20.6375 42.5733 20.686 42.5457 20.7379C42.4316 20.9042 42.276 21.112 42.0755 21.3544C41.875 21.6003 41.6502 21.8532 41.4082 22.1164C41.1628 22.3796 40.9069 22.6325 40.6373 22.8784C40.3676 23.1243 40.1049 23.339 39.849 23.5122C39.7972 23.5642 39.7315 23.6196 39.6589 23.6681C39.5828 23.7166 39.5068 23.7616 39.4273 23.8032C39.3443 23.8413 39.2613 23.8724 39.1749 23.8967C39.0885 23.9209 38.9986 23.9313 38.9121 23.9313C38.5319 23.9313 38.2345 23.8932 38.0167 23.817C37.7989 23.7408 37.6468 23.6161 37.5569 23.4533C37.4636 23.2871 37.4221 23.0723 37.429 22.8057C37.4359 22.539 37.4774 22.2169 37.55 21.8428L38.4039 17.1289L38.3901 17.122ZM27.7696 20.2981C27.7696 20.6583 27.8111 20.9631 27.8975 21.2124C27.9839 21.4618 28.098 21.6662 28.2432 21.8324C28.3884 21.9952 28.5544 22.1164 28.7411 22.1995C28.9312 22.2827 29.1248 22.3312 29.3253 22.3485L30.3798 16.36C30.1723 16.3843 29.9649 16.4327 29.7575 16.5089C29.5466 16.5817 29.3461 16.6856 29.1525 16.8207C28.9589 16.9592 28.7791 17.1289 28.6097 17.3298C28.4438 17.5342 28.2951 17.7766 28.1706 18.0606C28.0427 18.3446 27.9459 18.6702 27.8733 19.0408C27.8042 19.4114 27.7661 19.8339 27.7661 20.3015L27.7696 20.2981ZM34.2484 18.549C34.2484 18.1472 34.2 17.8078 34.1066 17.5307C34.0098 17.2536 33.8854 17.0285 33.7229 16.8588C33.5639 16.6856 33.3841 16.5644 33.1767 16.4812C32.9727 16.4016 32.7618 16.3531 32.544 16.3358C32.4679 16.7964 32.3884 17.2813 32.3124 17.7939C32.2328 18.3031 32.1533 18.8191 32.0703 19.3387C31.9874 19.8582 31.9113 20.3708 31.8318 20.8834C31.7557 21.3925 31.6831 21.8774 31.614 22.345C32.015 22.3208 32.378 22.2099 32.7065 22.016C33.0315 21.822 33.308 21.5553 33.5362 21.2228C33.7644 20.8903 33.9372 20.4955 34.0617 20.0418C34.1862 19.588 34.2449 19.0893 34.2449 18.549H34.2484ZM25.1905 19.5742C25.2562 19.0131 25.3807 18.5005 25.557 18.0398C25.7333 17.5757 25.9546 17.1601 26.2139 16.793C26.4732 16.4224 26.767 16.1037 27.1058 15.8266C27.4412 15.5495 27.8007 15.3175 28.1845 15.1305C28.5682 14.9434 28.9762 14.8014 29.4014 14.701C29.8266 14.6005 30.2622 14.5417 30.7048 14.5174L30.9122 13.3537L33.0591 13.184C33.0384 13.2844 33.0176 13.4056 32.9969 13.5407C32.9761 13.6585 32.9519 13.797 32.9277 13.9632C32.9035 14.126 32.8759 14.3096 32.8413 14.507C33.4221 14.5174 33.9649 14.6005 34.4627 14.7668C34.9606 14.9296 35.3927 15.1755 35.7592 15.4976C36.1222 15.8232 36.4091 16.2319 36.6166 16.7237C36.8205 17.2155 36.9277 17.7974 36.9277 18.4624C36.9277 19.259 36.8171 19.9933 36.5993 20.6617C36.3815 21.3302 36.0461 21.9121 35.5932 22.4004C35.1403 22.8922 34.563 23.2767 33.8646 23.5607C33.1663 23.8447 32.3366 23.9902 31.3824 24.004C31.3616 24.1876 31.3409 24.3573 31.3236 24.5132C31.3029 24.669 31.289 24.8041 31.2752 24.9288C31.2441 25.1782 31.1231 25.3617 30.9053 25.4726C30.6875 25.5834 30.4074 25.6388 30.0652 25.6388C29.7851 25.6388 29.5673 25.6007 29.4083 25.5315C29.2493 25.4622 29.1352 25.3548 29.066 25.2197C28.9969 25.0812 28.9623 24.9115 28.9658 24.7071C28.9658 24.5028 28.9934 24.2707 29.0384 24.004C28.2743 23.9902 27.6244 23.8828 27.0954 23.6785C26.563 23.4741 26.1413 23.1797 25.8267 22.8022C25.5155 22.4212 25.3081 21.964 25.2044 21.4202C25.1041 20.8765 25.1006 20.2634 25.1974 19.5742H25.1905Z" fill="#3C3C3B"/>
<path d="M35.1656 27.1766V26.5394H35.5286C35.7602 26.5394 35.9089 26.6467 35.9089 26.8545C35.9089 27.045 35.7637 27.1766 35.5286 27.1766H35.1656ZM39.9884 28.0287H40.296V26.2553H39.9884V28.0287ZM38.7057 27.7481V27.1628H39.0998C39.3349 27.1628 39.4698 27.2632 39.4698 27.4433C39.4698 27.6442 39.3349 27.7481 39.1068 27.7481H38.7057ZM38.398 28.0287H39.1102C39.5182 28.0287 39.7775 27.807 39.7775 27.4468C39.7775 27.0866 39.5078 26.8926 39.1137 26.8926H38.7057V26.2553H38.398V28.0287ZM42.9166 27.7481V27.2078H43.3833C43.6149 27.2078 43.7429 27.2979 43.7429 27.4676C43.7429 27.6858 43.5977 27.7481 43.328 27.7481H42.9201H42.9166ZM42.6089 28.0287H43.3937C43.7982 28.0287 44.0506 27.8347 44.0506 27.4814C44.0506 27.1282 43.7982 26.9446 43.4075 26.9446H42.9131V26.5359H43.9261V26.2553H42.6054V28.0287H42.6089ZM47.1102 27.7724C46.7575 27.7724 46.5086 27.4849 46.5086 27.142C46.5086 26.7991 46.7541 26.5116 47.1067 26.5116C47.4594 26.5116 47.7083 26.7991 47.7083 27.142C47.7083 27.4849 47.4628 27.7724 47.1102 27.7724ZM47.1067 28.0598C47.6495 28.0598 48.0332 27.6408 48.0332 27.142C48.0332 26.6433 47.653 26.2242 47.1102 26.2242C46.5674 26.2242 46.1836 26.6433 46.1836 27.142C46.1836 27.6408 46.5639 28.0598 47.1067 28.0598ZM50.5743 27.7551V27.2702H51.0687C51.3141 27.2702 51.4317 27.3602 51.4317 27.5091C51.4317 27.6754 51.3038 27.7585 51.0894 27.7585H50.5743V27.7551ZM50.5743 27.0069V26.5359H51.0203C51.2208 26.5359 51.3314 26.6225 51.3314 26.761C51.3314 26.9273 51.1966 27.0069 50.9961 27.0069H50.5708H50.5743ZM50.27 28.0321H51.0894C51.4835 28.0321 51.7428 27.8624 51.7428 27.5472C51.7428 27.3013 51.5976 27.1836 51.3902 27.1108C51.5216 27.0416 51.6426 26.9273 51.6426 26.716C51.6426 26.5913 51.6011 26.4943 51.525 26.4181C51.4248 26.3177 51.2657 26.2623 51.0618 26.2623H50.2666V28.0356L50.27 28.0321ZM54.799 27.7758C54.4463 27.7758 54.1974 27.4884 54.1974 27.1455C54.1974 26.8026 54.4429 26.5151 54.7955 26.5151C55.1482 26.5151 55.3971 26.8026 55.3971 27.1455C55.3971 27.4884 55.1516 27.7758 54.799 27.7758ZM54.7955 28.0633C55.3383 28.0633 55.722 27.6442 55.722 27.1455C55.722 26.6467 55.3418 26.2276 54.799 26.2276C54.2562 26.2276 53.8725 26.6467 53.8725 27.1455C53.8725 27.6442 54.2527 28.0633 54.7955 28.0633ZM58.2562 27.7551C58.3772 27.5091 58.4498 27.1559 58.4498 26.7437V26.5394H59.0755V27.7516H58.2596L58.2562 27.7551ZM57.7514 28.4131H58.0245L58.0557 28.0321H59.3037V28.4131H59.563L59.6045 27.7551H59.3832V26.2623H58.149V26.5116C58.149 27.1039 58.0695 27.4641 57.9243 27.7551H57.7514V28.4131ZM61.7376 28.0321H62.0487V27.284H62.8923V28.0321H63.2034V26.2588H62.8923V26.9965H62.0487V26.2588H61.7376V28.0321ZM66.3633 27.7758C66.0107 27.7758 65.7618 27.4884 65.7618 27.1455C65.7618 26.8026 66.0072 26.5151 66.3598 26.5151C66.7125 26.5151 66.9614 26.8026 66.9614 27.1455C66.9614 27.4884 66.7159 27.7758 66.3633 27.7758ZM66.3598 28.0633C66.9026 28.0633 67.2864 27.6442 67.2864 27.1455C67.2864 26.6467 66.9061 26.2276 66.3633 26.2276C65.8205 26.2276 65.4368 26.6467 65.4368 27.1455C65.4368 27.6442 65.8171 28.0633 66.3598 28.0633ZM69.5197 28.0321H70.8438V27.7516H69.8309V27.2771H70.7194V27H69.8309V26.5394H70.8335V26.2623H69.5197V28.0356V28.0321ZM75.2103 28.0321H75.5664L76.0331 27.3602L76.4998 28.0321H76.8663L76.2232 27.1247L76.8386 26.2588H76.4825L76.04 26.8961L75.6009 26.2588H75.2345L75.8533 27.1316L75.2103 28.0321ZM79.8913 27.7758C79.5387 27.7758 79.2898 27.4884 79.2898 27.1455C79.2898 26.8026 79.5352 26.5151 79.8879 26.5151C80.2405 26.5151 80.4894 26.8026 80.4894 27.1455C80.4894 27.4884 80.2439 27.7758 79.8913 27.7758ZM79.8844 28.0633C80.4272 28.0633 80.8109 27.6442 80.8109 27.1455C80.8109 26.6467 80.4306 26.2276 79.8879 26.2276C79.3451 26.2276 78.9613 26.6467 78.9613 27.1455C78.9613 27.6442 79.3416 28.0633 79.8844 28.0633ZM83.6458 26.2311C83.3312 26.2311 83.1342 26.3385 82.9648 26.5013L83.1307 26.7056C83.2655 26.5774 83.4177 26.5082 83.6251 26.5082C83.8221 26.5082 83.9604 26.6052 83.9604 26.7576C83.9604 26.9238 83.8221 27.0173 83.5974 27.0173H83.4004V27.2771H83.6009C83.8325 27.2771 84.0054 27.3533 84.0054 27.5368C84.0054 27.7031 83.8463 27.8035 83.6597 27.8035C83.4211 27.8035 83.231 27.7204 83.0719 27.568L82.9025 27.7828C83.0996 27.9733 83.3243 28.0737 83.67 28.0737C84.0641 28.0737 84.32 27.8486 84.32 27.5542C84.32 27.3221 84.1713 27.1905 83.9743 27.1282C84.1298 27.0623 84.275 26.9446 84.275 26.716C84.275 26.4389 84.0192 26.2415 83.6527 26.2415L83.6458 26.2311ZM87.1376 27.1489C86.9163 27.1489 86.7711 27.0312 86.7711 26.8441C86.7711 26.6571 86.9094 26.5394 87.1445 26.5394H87.5974V27.1489H87.141H87.1376ZM86.3978 28.0321H86.7642L87.2033 27.4191H87.5939V28.0321H87.9016V26.2588H87.1169C86.7089 26.2588 86.4565 26.4805 86.4565 26.8234C86.4565 27.1178 86.6294 27.2979 86.8783 27.3637L86.3943 28.0287L86.3978 28.0321ZM90.2145 28.0321H90.5084L91.4003 26.7402V28.0321H91.7046V26.2588H91.4141L90.5187 27.5542V26.2588H90.2145V28.0321ZM90.9716 26.1203C91.186 26.1203 91.3346 25.9852 91.3692 25.767L91.1825 25.7323C91.1479 25.8397 91.0857 25.9055 90.9716 25.9055C90.8575 25.9055 90.7918 25.8397 90.7607 25.7323L90.5706 25.767C90.6052 25.9852 90.7538 26.1203 90.9716 26.1203ZM94.8437 28.0633C95.1756 28.0633 95.3761 27.9421 95.5628 27.7481L95.3623 27.5438C95.2101 27.6858 95.0719 27.7758 94.854 27.7758C94.5152 27.7758 94.2698 27.4918 94.2698 27.1455C94.2698 26.7991 94.5152 26.5151 94.854 26.5151C95.058 26.5151 95.2067 26.6052 95.3484 26.7368L95.549 26.5047C95.3795 26.3419 95.1825 26.2276 94.8575 26.2276C94.3216 26.2276 93.9448 26.6398 93.9448 27.1455C93.9448 27.6511 94.3286 28.0633 94.8437 28.0633ZM98.1799 28.0321H98.4945V26.5463H99.0546V26.2588H97.6198V26.5463H98.1799V28.0321ZM101.544 27.7551V27.2702H102.038C102.284 27.2702 102.401 27.3602 102.401 27.5091C102.401 27.6754 102.273 27.7585 102.059 27.7585H101.544V27.7551ZM101.544 27.0069V26.5359H101.99C102.19 26.5359 102.301 26.6225 102.301 26.761C102.301 26.9273 102.166 27.0069 101.966 27.0069H101.54H101.544ZM101.239 28.0321H102.059C102.453 28.0321 102.712 27.8624 102.712 27.5472C102.712 27.3013 102.567 27.1836 102.36 27.1108C102.491 27.0416 102.612 26.9273 102.612 26.716C102.612 26.5913 102.571 26.4943 102.494 26.4181C102.394 26.3177 102.235 26.2623 102.031 26.2623H101.236V28.0356L101.239 28.0321ZM105.768 27.7758C105.416 27.7758 105.167 27.4884 105.167 27.1455C105.167 26.8026 105.412 26.5151 105.765 26.5151C106.118 26.5151 106.367 26.8026 106.367 27.1455C106.367 27.4884 106.121 27.7758 105.768 27.7758ZM105.765 28.0633C106.308 28.0633 106.691 27.6442 106.691 27.1455C106.691 26.6467 106.311 26.2276 105.768 26.2276C105.226 26.2276 104.842 26.6467 104.842 27.1455C104.842 27.6442 105.222 28.0633 105.765 28.0633ZM34.8613 28.0321H35.1725V27.4606H35.5251C35.9158 27.4606 36.2338 27.2528 36.2338 26.8545C36.2338 26.4909 35.9745 26.2553 35.5597 26.2553H34.8613V28.0287V28.0321Z" fill="#878787"/>
</svg>
